<?xml version="1.0" encoding="UTF-8"?>
<svg id="uuid-80665526-15cc-4122-8471-2895a890bb44" data-name="Ebene 1" xmlns="http://www.w3.org/2000/svg" viewBox="0 0 1285.295 286.503">
  <defs>
    <style>
      .uuid-f064586d-370e-4a63-9eba-4a9a573cd3af {
        fill: #000;
      }

      .uuid-f064586d-370e-4a63-9eba-4a9a573cd3af, .uuid-e8445d92-fd44-4f48-b375-d508b5e13d72 {
        stroke-width: 0px;
      }

      .uuid-e8445d92-fd44-4f48-b375-d508b5e13d72 {
        fill: red;
      }
    </style>
  </defs>
  <g>
    <path class="uuid-f064586d-370e-4a63-9eba-4a9a573cd3af" d="M413.591,72.301c-22.8,0-44.101,13.8-53.101,29.1v-26.4h-24.9v211.502h24.9v-80.401c9,15.6,27.301,28.5,53.101,28.5,43.2,0,71.4-33,71.4-81.001v-2.4c0-48.9-30.3-78.901-71.4-78.901ZM459.191,154.802c0,38.1-16.8,59.101-48,59.101-30.601,0-51.601-18.9-51.601-59.101v-2.4c0-40.2,22.2-59.4,51.3-59.4,26.4,0,48.301,19.8,48.301,59.4v2.4Z"/>
    <path class="uuid-f064586d-370e-4a63-9eba-4a9a573cd3af" d="M568.271,140.401c-28.801-5.1-36.601-10.8-36.601-24.9,0-13.5,11.7-22.5,29.7-22.5,19.801,0,29.4,7.5,33.001,24.6h24c-4.2-33.9-28.501-45.3-56.701-45.3-24.6,0-53.101,15-53.101,44.101,0,27.3,13.801,38.7,54.601,46.2,24.301,4.5,36.601,9.9,36.601,26.4,0,16.8-10.5,24.9-34.2,24.9-25.2,0-35.101-11.7-36.9-30.3h-24.3c1.5,32.1,24,51,61.5,51,38.101,0,57.601-19.2,57.601-47.701,0-33.3-22.8-40.5-55.2-46.5Z"/>
    <rect class="uuid-f064586d-370e-4a63-9eba-4a9a573cd3af" x="654.278" width="25.2" height="231.902"/>
    <polygon class="uuid-f064586d-370e-4a63-9eba-4a9a573cd3af" points="833.858 75.001 711.758 75.001 711.758 96.001 795.458 96.001 702.758 228.302 702.758 231.902 832.658 231.902 832.658 210.002 743.258 210.002 833.858 79.501 833.858 75.001"/>
  </g>
  <g>
    <path class="uuid-e8445d92-fd44-4f48-b375-d508b5e13d72" d="M1028.465,114.601c12.301,0,20.101,7.8,20.101,23.7v93.601h53.7v-102.601c0-39.3-21.6-58.5-51.3-58.5-19.801,0-38.4,7.8-51.9,26.1-7.501-17.1-21.9-26.1-42.601-26.1-24.301,0-40.801,13.2-49.201,28.2v-24h-53.7v156.901h53.7v-90.901c0-17.1,9.601-26.4,24.001-26.4,12.3,0,20.1,7.8,20.1,23.7v93.601h53.101v-90.901c0-17.1,9.601-26.4,24-26.4Z"/>
    <path class="uuid-e8445d92-fd44-4f48-b375-d508b5e13d72" d="M1285.295,151.802c0-56.401-36.9-81.001-79.801-81.001-47.4,0-84.901,31.8-84.901,82.201v2.4c0,51.301,36.001,80.101,85.201,80.101,47.4,0,74.701-20.1,79.501-55.5h-50.4c-2.1,10.5-9.601,18.6-27.301,18.6-19.2,0-31.2-12-32.7-32.7h110.401v-14.1ZM1175.494,135.602c2.699-18.9,13.8-29.4,30-29.4,17.4,0,26.7,10.5,27.601,29.4h-57.601Z"/>
    <polygon class="uuid-e8445d92-fd44-4f48-b375-d508b5e13d72" points="868.515 247.998 863.787 257.12 858.959 247.998 853.032 247.998 860.891 261.548 860.891 271.803 866.317 271.803 866.317 261.548 873.742 247.998 868.515 247.998"/>
    <path class="uuid-e8445d92-fd44-4f48-b375-d508b5e13d72" d="M885.784,247.665c-7.059,0-12.252,5.027-12.252,12.119v.267c0,6.958,4.761,12.119,12.219,12.119s12.286-5.161,12.286-12.252v-.266c0-7.159-5.095-11.986-12.253-11.986ZM892.41,259.983c0,4.794-2.53,7.891-6.56,7.891-3.896,0-6.692-2.997-6.692-7.857v-.267c0-4.794,2.497-7.824,6.626-7.824,4.162,0,6.626,3.163,6.626,7.791v.266Z"/>
    <path class="uuid-e8445d92-fd44-4f48-b375-d508b5e13d72" d="M915.931,261.981c0,4.361-1.398,5.893-4.595,5.893-3.264,0-4.429-1.731-4.429-5.693v-14.184h-5.427v14.517c0,6.326,3.562,9.655,9.822,9.655,6.426,0,10.055-3.363,10.055-9.855v-14.317h-5.427v13.984Z"/>
    <path class="uuid-e8445d92-fd44-4f48-b375-d508b5e13d72" d="M943.765,255.355v-.133c0-4.928-3.562-7.225-9.189-7.225h-8.523v23.806h5.361v-9.189h2.33l5.693,9.189h5.727l-6.292-10.122c2.796-.833,4.894-2.73,4.894-6.326ZM938.505,255.522c0,2.297-1.365,3.43-4.062,3.43h-3.029v-6.826h3.029c2.597,0,4.062.833,4.062,3.263v.133Z"/>
    <polygon class="uuid-e8445d92-fd44-4f48-b375-d508b5e13d72" points="961.216 247.998 955.821 247.998 955.821 271.803 970.904 271.803 970.904 267.575 961.216 267.575 961.216 247.998"/>
    <rect class="uuid-e8445d92-fd44-4f48-b375-d508b5e13d72" x="973.816" y="247.998" width="5.428" height="23.806"/>
    <polygon class="uuid-e8445d92-fd44-4f48-b375-d508b5e13d72" points="999.445 263.679 990.39 247.998 984.13 247.998 984.13 271.803 988.924 271.803 988.924 254.856 998.846 271.803 1004.24 271.803 1004.24 247.998 999.445 247.998 999.445 263.679"/>
    <polygon class="uuid-e8445d92-fd44-4f48-b375-d508b5e13d72" points="1028.559 247.998 1022.832 247.998 1014.509 258.252 1014.509 247.998 1009.114 247.998 1009.114 271.803 1014.509 271.803 1014.509 261.116 1022.732 271.803 1029.025 271.803 1019.137 259.251 1028.559 247.998"/>
    <path class="uuid-e8445d92-fd44-4f48-b375-d508b5e13d72" d="M1047.574,247.998h-8.225v23.806h5.361v-8.657h3.029c5.427,0,8.923-2.397,8.923-7.425v-.133c0-5.028-3.296-7.591-9.089-7.591ZM1051.47,255.755c0,2.364-1.398,3.629-4.029,3.629h-2.729v-7.292h2.729c2.563,0,4.029.999,4.029,3.529v.133Z"/>
    <polygon class="uuid-e8445d92-fd44-4f48-b375-d508b5e13d72" points="1064.874 261.682 1072.997 261.682 1072.997 257.753 1064.874 257.753 1064.874 252.193 1075.028 252.193 1075.028 247.998 1059.513 247.998 1059.513 271.803 1075.562 271.803 1075.562 267.608 1064.874 267.608 1064.874 261.682"/>
    <path class="uuid-e8445d92-fd44-4f48-b375-d508b5e13d72" d="M1096.713,255.355v-.133c0-4.928-3.562-7.225-9.189-7.225h-8.523v23.806h5.36v-9.189h2.331l5.693,9.189h5.727l-6.293-10.122c2.797-.833,4.895-2.73,4.895-6.326ZM1091.452,255.522c0,2.297-1.365,3.43-4.062,3.43h-3.03v-6.826h3.03c2.597,0,4.062.833,4.062,3.263v.133Z"/>
    <path class="uuid-e8445d92-fd44-4f48-b375-d508b5e13d72" d="M1109.558,257.354c-3.662-.533-4.429-1.332-4.429-3.03,0-1.598,1.199-2.697,3.563-2.697s3.629.999,3.962,3.163h4.961c-.434-4.728-3.562-7.125-8.923-7.125-5.261,0-8.657,3.03-8.657,7.092,0,4.595,2.497,6.426,8.59,7.225,3.496.533,4.495,1.198,4.495,3.096,0,1.865-1.564,3.163-3.929,3.163-3.529,0-4.429-1.765-4.661-3.896h-5.161c.3,4.761,3.297,7.824,9.822,7.824,5.627,0,9.09-3.363,9.09-7.591,0-4.927-2.964-6.492-8.724-7.225Z"/>
    <path class="uuid-e8445d92-fd44-4f48-b375-d508b5e13d72" d="M1132.808,247.665c-7.059,0-12.252,5.027-12.252,12.119v.267c0,6.958,4.761,12.119,12.219,12.119s12.286-5.161,12.286-12.252v-.266c0-7.159-5.095-11.986-12.253-11.986ZM1139.434,259.983c0,4.794-2.53,7.891-6.56,7.891-3.896,0-6.692-2.997-6.692-7.857v-.267c0-4.794,2.497-7.824,6.626-7.824,4.162,0,6.626,3.163,6.626,7.791v.266Z"/>
    <polygon class="uuid-e8445d92-fd44-4f48-b375-d508b5e13d72" points="1164.056 263.679 1154.999 247.998 1148.739 247.998 1148.739 271.803 1153.534 271.803 1153.534 254.856 1163.456 271.803 1168.85 271.803 1168.85 247.998 1164.056 247.998 1164.056 263.679"/>
    <path class="uuid-e8445d92-fd44-4f48-b375-d508b5e13d72" d="M1179.395,247.998l-7.824,23.806h5.061l1.632-5.294h8.623l1.632,5.294h5.627l-7.725-23.806h-7.025ZM1179.428,262.681l3.163-10.288,3.13,10.288h-6.293Z"/>
    <polygon class="uuid-e8445d92-fd44-4f48-b375-d508b5e13d72" points="1202.258 247.998 1196.864 247.998 1196.864 271.803 1211.946 271.803 1211.946 267.575 1202.258 267.575 1202.258 247.998"/>
    <rect class="uuid-e8445d92-fd44-4f48-b375-d508b5e13d72" x="1214.859" y="247.998" width="5.428" height="23.806"/>
    <polygon class="uuid-e8445d92-fd44-4f48-b375-d508b5e13d72" points="1224.233 252.193 1234.321 252.193 1222.968 271.137 1222.968 271.803 1241.547 271.803 1241.547 267.575 1230.826 267.575 1241.946 248.63 1241.946 247.998 1224.233 247.998 1224.233 252.193"/>
    <polygon class="uuid-e8445d92-fd44-4f48-b375-d508b5e13d72" points="1250.213 261.682 1258.337 261.682 1258.337 257.753 1250.213 257.753 1250.213 252.193 1260.368 252.193 1260.368 247.998 1244.853 247.998 1244.853 271.803 1260.9 271.803 1260.9 267.608 1250.213 267.608 1250.213 261.682"/>
    <path class="uuid-e8445d92-fd44-4f48-b375-d508b5e13d72" d="M1282.052,255.355v-.133c0-4.928-3.562-7.225-9.189-7.225h-8.523v23.806h5.36v-9.189h2.331l5.693,9.189h5.727l-6.293-10.122c2.797-.833,4.895-2.73,4.895-6.326ZM1276.791,255.522c0,2.297-1.365,3.43-4.062,3.43h-3.03v-6.826h3.03c2.597,0,4.062.833,4.062,3.263v.133Z"/>
    <path class="uuid-e8445d92-fd44-4f48-b375-d508b5e13d72" d="M131.053,201.85c.719-1.055,1.472-2.104,2.238-3.116.766-1.013,1.568-2.021,2.385-2.998.817-.977,1.669-1.945,2.532-2.878.861-.932,1.76-1.858,2.67-2.751.91-.892,1.855-1.774,2.811-2.623.953-.847,1.943-1.684,2.944-2.488,1-.804,2.034-1.594,3.076-2.351,1.033-.751,2.111-1.494,3.201-2.207,1.082-.708,2.201-1.4,3.328-2.061,1.124-.659,2.284-1.301,3.446-1.909.536-.28,1.064-.572,1.587-.877.518-.303,1.027-.617,1.532-.945.5-.326.992-.663,1.478-1.013.484-.349.958-.708,1.421-1.077.467-.371.923-.752,1.37-1.145,2.061-1.806,2.267-4.94.461-7-1.806-2.062-4.94-2.267-7-.461-.328.287-.662.566-1.006.84-.343.272-.692.538-1.046.793-.357.257-.722.507-1.087.745-.372.242-.75.475-1.132.699-.383.224-.773.439-1.17.646-1.306.683-2.609,1.404-3.871,2.144-1.265.742-2.523,1.521-3.741,2.317-1.227.803-2.438,1.638-3.601,2.482-1.172.851-2.337,1.741-3.462,2.646-1.127.906-2.243,1.849-3.317,2.803-1.076.956-2.141,1.95-3.166,2.956-1.027,1.007-2.041,2.051-3.012,3.103-.972,1.051-1.932,2.143-2.854,3.245-.921,1.102-1.827,2.239-2.689,3.38-.863,1.141-1.711,2.323-2.523,3.514-.813,1.193-1.603,2.417-2.349,3.637-.75,1.226-1.481,2.491-2.174,3.76-.691,1.265-1.361,2.568-1.993,3.874-.632,1.306-1.24,2.646-1.809,3.984-.568,1.338-1.113,2.714-1.619,4.088-.505,1.372-.986,2.782-1.428,4.19-.439,1.402-.851,2.833-1.221,4.252-.369,1.415-.708,2.856-1.006,4.282-.299,1.428-.565,2.876-.792,4.304-.228,1.435-.421,2.888-.577,4.319-.156,1.434-.278,2.89-.363,4.327-.162,2.735,1.924,5.083,4.659,5.245.1.006.199.009.297.009,2.606,0,4.792-2.033,4.948-4.668.075-1.275.184-2.568.322-3.843.138-1.271.31-2.561.512-3.834.201-1.269.438-2.556.704-3.827.266-1.269.566-2.55.895-3.808.33-1.265.696-2.54,1.088-3.789.394-1.254.821-2.509,1.271-3.731.451-1.224.936-2.448,1.44-3.638.505-1.189,1.047-2.381,1.608-3.542.562-1.16,1.157-2.318,1.771-3.442.615-1.126,1.264-2.249,1.93-3.336.662-1.083,1.364-2.169,2.084-3.228Z"/>
    <path class="uuid-e8445d92-fd44-4f48-b375-d508b5e13d72" d="M164.797,186.25c-.998.521-1.993,1.072-2.957,1.637-.96.562-1.921,1.158-2.857,1.769-.935.611-1.861,1.25-2.752,1.897-.893.648-1.783,1.328-2.644,2.021-.858.689-1.711,1.41-2.537,2.144-.823.731-1.636,1.491-2.417,2.256-.782.767-1.557,1.565-2.302,2.371-.743.804-1.477,1.638-2.182,2.48-.708.846-1.399,1.716-2.055,2.583-.664.877-1.312,1.781-1.927,2.683-.62.91-1.225,1.846-1.797,2.781-.574.938-1.133,1.905-1.662,2.873-.528.968-1.041,1.963-1.523,2.96-.482.999-.947,2.022-1.381,3.043-.434,1.023-.85,2.074-1.237,3.124-.386,1.049-.753,2.125-1.089,3.197-.821,2.614.633,5.398,3.247,6.219.494.155.995.229,1.487.229,2.109,0,4.066-1.356,4.731-3.476.289-.92.603-1.843.934-2.741.331-.898.688-1.798,1.059-2.672.371-.873.769-1.75,1.181-2.601.412-.85.849-1.701,1.301-2.528.45-.825.927-1.649,1.417-2.451.487-.797,1.002-1.594,1.531-2.37.524-.77,1.077-1.539,1.642-2.287.559-.739,1.148-1.479,1.75-2.2.6-.717,1.225-1.427,1.859-2.113.634-.688,1.294-1.366,1.96-2.02.667-.654,1.361-1.302,2.062-1.925.703-.624,1.43-1.238,2.162-1.827.736-.592,1.496-1.172,2.259-1.727.761-.553,1.552-1.099,2.351-1.62.8-.523,1.622-1.032,2.446-1.515.826-.484,1.677-.956,2.533-1.403.835-.437,1.658-.892,2.466-1.364.802-.469,1.606-.965,2.387-1.473.773-.502,1.549-1.035,2.307-1.58.755-.543,1.495-1.104,2.223-1.683.725-.578,1.436-1.171,2.13-1.78.696-.609,1.376-1.235,2.041-1.876.664-.641,1.313-1.297,1.948-1.971.632-.671,1.248-1.356,1.847-2.057.6-.701,1.184-1.416,1.749-2.144.566-.729,1.115-1.471,1.645-2.226.531-.755,1.044-1.523,1.542-2.307.495-.781.972-1.574,1.431-2.381.459-.806.899-1.624,1.32-2.453.419-.825.825-1.674,1.207-2.523.383-.852.746-1.714,1.09-2.59.345-.879.672-1.771.97-2.65.311-.917.603-1.852.869-2.781.265-.925.509-1.869.728-2.803.219-.936.417-1.887.587-2.824.172-.942.322-1.897.446-2.836.124-.936.227-1.893.305-2.846.078-.939.133-1.898.165-2.851.031-.94.039-1.899.023-2.852s-.055-1.911-.116-2.845c-.062-.944-.148-1.899-.257-2.838-.109-.943-.242-1.894-.396-2.823-.153-.926-.333-1.869-.536-2.805-.199-.919-.426-1.854-.675-2.782-.247-.918-.52-1.845-.813-2.756-.296-.918-.616-1.834-.95-2.718-.338-.899-.705-1.803-1.089-2.688-.384-.885-.796-1.775-1.225-2.645-.425-.862-.88-1.73-1.353-2.581-.466-.839-.96-1.68-1.469-2.5-.507-.815-1.039-1.626-1.581-2.409-.541-.783-1.109-1.564-1.69-2.322-1.667-2.174-4.781-2.584-6.955-.92-2.174,1.667-2.586,4.78-.92,6.955.482.629.951,1.272,1.405,1.929.453.656.892,1.324,1.313,2.003.423.681.831,1.375,1.223,2.081.393.707.769,1.424,1.128,2.152.36.73.701,1.466,1.022,2.207.321.74.623,1.485.906,2.237.283.75.546,1.506.79,2.262.244.759.47,1.521.675,2.286.206.767.393,1.537.56,2.307.167.773.315,1.549.444,2.328.129.778.238,1.558.329,2.34.09.781.161,1.563.212,2.351.052.784.083,1.57.096,2.356.013.786.007,1.574-.02,2.361-.026.788-.071,1.576-.136,2.363-.065.788-.149,1.575-.253,2.364-.104.786-.227,1.571-.371,2.356-.143.783-.305,1.564-.488,2.346-.183.78-.384,1.559-.606,2.333-.222.777-.464,1.551-.725,2.322-.253.745-.522,1.48-.808,2.206-.286.727-.588,1.445-.907,2.154-.318.708-.652,1.407-1.003,2.097-.35.689-.715,1.369-1.096,2.037-.381.669-.777,1.329-1.188,1.976-.412.648-.838,1.286-1.279,1.915-.44.627-.896,1.242-1.365,1.847-.469.604-.952,1.196-1.449,1.777-.498.581-1.01,1.15-1.531,1.705-.525.557-1.063,1.102-1.614,1.633-.551.532-1.116,1.05-1.694,1.558-.577.506-1.167.999-1.766,1.475-.603.479-1.217.945-1.846,1.397-.626.451-1.264.889-1.916,1.312-.651.423-1.312.832-1.986,1.226-.675.395-1.361.774-2.054,1.136Z"/>
    <path class="uuid-e8445d92-fd44-4f48-b375-d508b5e13d72" d="M74.737,156.845c1.204,0,2.41-.435,3.364-1.316,1.608-1.485,3.161-3.064,4.615-4.696,1.467-1.646,2.869-3.386,4.167-5.167,1.313-1.803,2.55-3.694,3.676-5.618,1.143-1.952,2.198-3.985,3.138-6.042.956-2.092,1.816-4.259,2.557-6.443.261-.77.541-1.531.836-2.28.296-.75.61-1.492.942-2.225.33-.729.677-1.449,1.039-2.156.364-.709.745-1.409,1.141-2.096.396-.686.808-1.362,1.236-2.027.428-.664.871-1.316,1.331-1.959.458-.64.933-1.269,1.421-1.885.489-.616.993-1.22,1.512-1.812.518-.591,1.051-1.169,1.599-1.735s1.109-1.118,1.684-1.656c.576-.54,1.167-1.065,1.766-1.574.604-.512,1.221-1.009,1.85-1.491.629-.482,1.272-.951,1.929-1.405.656-.453,1.324-.892,2.001-1.312.682-.423,1.376-.832,2.082-1.224.707-.393,1.426-.77,2.152-1.128.73-.36,1.466-.701,2.207-1.022.74-.321,1.485-.623,2.236-.906s1.506-.546,2.264-.791c.758-.244,1.522-.469,2.285-.674.767-.206,1.537-.393,2.31-.561.772-.167,1.547-.315,2.325-.444s1.558-.238,2.34-.329c.781-.09,1.563-.161,2.351-.212.784-.052,1.57-.084,2.356-.097.784-.013,1.573-.006,2.361.02.788.026,1.576.071,2.366.136.788.065,1.575.149,2.358.253.787.104,1.574.228,2.356.37.785.144,1.568.306,2.349.488.78.182,1.559.385,2.336.607.775.221,1.548.463,2.319.725.77.261,1.531.541,2.281.836.751.296,1.492.61,2.223.94.73.331,1.451.678,2.158,1.041.709.364,1.409.745,2.094,1.139.687.396,1.363.808,2.027,1.236,2.304,1.483,5.373.821,6.857-1.481,1.484-2.303.821-5.373-1.481-6.857-.789-.508-1.61-1.01-2.447-1.492-.826-.476-1.674-.938-2.522-1.373-.851-.436-1.724-.857-2.597-1.251-.877-.397-1.775-.777-2.669-1.13-.902-.356-1.823-.693-2.734-1.002-.918-.312-1.855-.604-2.782-.869-.929-.266-1.873-.511-2.806-.729-.932-.218-1.881-.415-2.825-.587-.94-.171-1.894-.321-2.836-.446-.949-.125-1.907-.228-2.843-.305-.939-.078-1.898-.133-2.851-.165-.947-.032-1.906-.04-2.852-.024-.946.016-1.904.055-2.845.117-.944.062-1.899.148-2.838.257-.943.109-1.894.242-2.823.396-.937.155-1.88.335-2.805.536-.919.199-1.854.426-2.783.675-.921.248-1.848.521-2.754.813-.914.295-1.83.615-2.719.95-.899.338-1.803.705-2.688,1.089-.885.384-1.775.796-2.647,1.226-.869.429-1.737.884-2.579,1.352-.834.463-1.674.957-2.5,1.469-.815.507-1.626,1.039-2.409,1.581-.783.541-1.564,1.109-2.324,1.692-.756.58-1.505,1.184-2.229,1.797-.728.618-1.444,1.256-2.13,1.898-.691.647-1.375,1.32-2.033,1.999-.661.683-1.311,1.388-1.929,2.094-.621.708-1.235,1.444-1.825,2.188-.589.743-1.167,1.509-1.716,2.276-.551.769-1.091,1.563-1.604,2.361-.514.797-1.016,1.62-1.492,2.446s-.938,1.674-1.373,2.522c-.44.859-.862,1.734-1.251,2.596-.396.874-.776,1.772-1.131,2.67-.356.904-.694,1.825-1.003,2.735-.633,1.867-1.369,3.719-2.186,5.507-.802,1.755-1.703,3.49-2.677,5.155-.959,1.64-2.014,3.251-3.133,4.789-1.107,1.52-2.302,3.002-3.553,4.406-1.241,1.392-2.566,2.74-3.938,4.008-2.013,1.858-2.138,4.997-.279,7.01.978,1.059,2.31,1.595,3.646,1.595Z"/>
    <path class="uuid-e8445d92-fd44-4f48-b375-d508b5e13d72" d="M211.64,148.764c-.093,1.123-.214,2.26-.362,3.379-.149,1.129-.328,2.264-.53,3.373-.204,1.115-.438,2.245-.699,3.358-.26,1.111-.551,2.235-.868,3.342-.315,1.104-.664,2.221-1.037,3.317-.359,1.06-.748,2.122-1.156,3.16-.403,1.026-.84,2.063-1.297,3.08-.456,1.014-.938,2.023-1.435,3-.497.977-1.025,1.959-1.57,2.917-.542.951-1.114,1.902-1.702,2.83-.584.922-1.199,1.842-1.829,2.738-.623.886-1.28,1.775-1.954,2.643-.667.859-1.366,1.716-2.075,2.544-.707.825-1.446,1.647-2.195,2.442-.75.795-1.527,1.582-2.312,2.338-1.972,1.902-2.028,5.042-.125,7.014.973,1.009,2.271,1.516,3.57,1.516,1.24,0,2.481-.462,3.444-1.391.896-.865,1.785-1.764,2.643-2.673.857-.909,1.702-1.85,2.511-2.795.812-.948,1.611-1.928,2.374-2.911.771-.992,1.522-2.009,2.235-3.022.72-1.023,1.424-2.078,2.092-3.132.671-1.058,1.326-2.146,1.945-3.235.623-1.095,1.226-2.216,1.792-3.331.567-1.116,1.119-2.27,1.639-3.428.522-1.161,1.02-2.345,1.48-3.516.465-1.182.909-2.394,1.318-3.602.424-1.249.822-2.521,1.181-3.78.36-1.261.693-2.542.989-3.811.297-1.271.565-2.561.797-3.835.231-1.267.435-2.563.606-3.854.169-1.28.308-2.581.414-3.864.106-1.284.181-2.586.224-3.873.042-1.287.053-2.589.032-3.871-.021-1.287-.075-2.586-.158-3.863-.084-1.277-.201-2.572-.349-3.853-.147-1.275-.328-2.563-.538-3.833-.211-1.273-.456-2.554-.728-3.808-.273-1.261-.582-2.531-.916-3.777-.336-1.25-.708-2.508-1.104-3.74-.397-1.235-.832-2.479-1.292-3.698-.461-1.225-.959-2.453-1.479-3.648-.522-1.204-1.083-2.414-1.665-3.594-.581-1.178-1.199-2.358-1.838-3.508-.638-1.148-1.309-2.29-1.996-3.395-.691-1.112-1.414-2.213-2.147-3.274-.737-1.066-1.51-2.127-2.296-3.152-.784-1.024-1.605-2.042-2.44-3.027-.833-.982-1.7-1.956-2.581-2.896-.883-.943-1.796-1.871-2.713-2.758-.922-.893-1.879-1.774-2.843-2.62-.96-.842-1.959-1.676-2.97-2.478-.997-.791-2.037-1.575-3.092-2.332-1.045-.748-2.124-1.481-3.206-2.178-1.084-.698-2.202-1.379-3.321-2.024-1.123-.646-2.274-1.273-3.426-1.864-1.158-.593-2.345-1.166-3.526-1.7-1.185-.537-2.404-1.053-3.626-1.535-1.219-.481-2.47-.94-3.718-1.363-1.249-.424-2.521-.822-3.78-1.181-1.261-.36-2.542-.693-3.81-.989-1.261-.294-2.55-.562-3.835-.797-1.267-.231-2.563-.435-3.854-.606-1.28-.169-2.58-.308-3.863-.414-1.284-.106-2.586-.181-3.873-.224-1.287-.042-2.589-.053-3.868-.032-2.739.044-4.924,2.301-4.88,5.04s2.25,4.932,5.04,4.88c1.118-.019,2.257-.009,3.382.028,1.124.037,2.262.103,3.384.195,1.123.093,2.26.214,3.379.362,1.129.15,2.264.328,3.371.53,1.125.206,2.256.441,3.36.699,1.111.26,2.235.551,3.342.868,1.104.315,2.221.664,3.317,1.036,1.096.372,2.194.775,3.264,1.197,1.071.423,2.14.875,3.18,1.346,1.036.468,2.076.97,3.089,1.489,1.007.517,2.016,1.066,3,1.633.978.563,1.954,1.158,2.901,1.769.947.609,1.89,1.25,2.803,1.903.922.661,1.831,1.346,2.702,2.037.883.701,1.756,1.429,2.594,2.165.843.739,1.679,1.509,2.485,2.29.802.776,1.6,1.587,2.371,2.411.769.821,1.527,1.673,2.255,2.53.729.861,1.447,1.751,2.134,2.648.688.897,1.364,1.825,2.009,2.758.642.929,1.275,1.895,1.881,2.869.601.967,1.189,1.969,1.75,2.976.561,1.009,1.104,2.045,1.613,3.079.511,1.036,1.002,2.097,1.461,3.156.456,1.049.892,2.125,1.296,3.198.402,1.067.783,2.157,1.131,3.239.348,1.079.673,2.18.966,3.272.292,1.09.562,2.202.801,3.305.237,1.096.452,2.215.636,3.326.183,1.109.341,2.237.47,3.35.129,1.118.231,2.25.304,3.366s.12,2.252.139,3.375c.018,1.119.009,2.258-.028,3.382-.037,1.123-.103,2.261-.195,3.384Z"/>
    <path class="uuid-e8445d92-fd44-4f48-b375-d508b5e13d72" d="M39.073,152.037c.281,0,.565-.024.852-.073,1.48-.256,2.964-.587,4.414-.984,1.448-.397,2.889-.867,4.283-1.397,1.397-.531,2.785-1.135,4.123-1.795,1.339-.661,2.663-1.394,3.934-2.179,1.276-.789,2.526-1.646,3.714-2.548,1.198-.909,2.366-1.887,3.468-2.905,1.11-1.024,2.184-2.117,3.19-3.246,1.015-1.139,1.984-2.341,2.881-3.573.908-1.247,1.762-2.553,2.54-3.881.788-1.346,1.518-2.751,2.169-4.176.66-1.443,1.254-2.941,1.767-4.452.37-1.09.773-2.189,1.197-3.264.423-1.071.875-2.14,1.346-3.181.467-1.034.968-2.073,1.49-3.09.514-1.004,1.062-2.012,1.63-2.996.564-.979,1.16-1.956,1.77-2.902s1.25-1.89,1.903-2.803c.661-.922,1.346-1.831,2.038-2.702.701-.883,1.429-1.756,2.164-2.594.739-.843,1.509-1.679,2.29-2.485.78-.807,1.592-1.604,2.411-2.371.821-.769,1.673-1.527,2.53-2.255.861-.729,1.751-1.447,2.648-2.134.897-.688,1.825-1.364,2.758-2.009.931-.644,1.896-1.276,2.87-1.881.964-.6,1.965-1.188,2.975-1.749,1.009-.561,2.045-1.104,3.079-1.613,1.036-.511,2.097-1.002,3.154-1.461,1.058-.459,2.134-.895,3.199-1.297,1.064-.401,2.154-.782,3.239-1.131,1.082-.348,2.184-.673,3.274-.967,2.646-.711,4.214-3.433,3.503-6.078s-3.43-4.214-6.078-3.503c-1.247.335-2.505.707-3.741,1.104-1.238.399-2.482.833-3.697,1.292s-2.443.956-3.648,1.479c-1.204.522-2.414,1.083-3.594,1.665-1.178.581-2.358,1.199-3.508,1.838-1.151.64-2.293,1.312-3.394,1.995-1.11.69-2.212,1.412-3.276,2.148-1.066.737-2.127,1.51-3.152,2.296-1.024.785-2.042,1.605-3.027,2.44-.982.833-1.956,1.7-2.896,2.58-.938.878-1.866,1.792-2.759,2.714-.893.922-1.774,1.879-2.62,2.843-.842.96-1.676,1.959-2.478,2.97-.791.997-1.575,2.037-2.332,3.092-.748,1.045-1.481,2.124-2.179,3.207-.697,1.083-1.378,2.2-2.023,3.318-.649,1.125-1.276,2.279-1.863,3.425-.595,1.16-1.168,2.347-1.701,3.528-.537,1.185-1.053,2.404-1.536,3.627-.483,1.225-.941,2.475-1.363,3.718-.405,1.194-.874,2.375-1.395,3.515-.514,1.123-1.088,2.229-1.708,3.289-.612,1.045-1.285,2.073-1.999,3.055-.705.969-1.467,1.914-2.266,2.81-.792.889-1.638,1.75-2.514,2.558-.869.803-1.789,1.573-2.734,2.29-.938.712-1.924,1.389-2.933,2.012-1.004.621-2.05,1.2-3.107,1.721s-2.153.999-3.259,1.419c-1.1.418-2.238.789-3.38,1.102-1.143.313-2.315.574-3.484.776-2.7.467-4.509,3.034-4.042,5.734.418,2.414,2.514,4.116,4.882,4.116Z"/>
    <path class="uuid-e8445d92-fd44-4f48-b375-d508b5e13d72" d="M106.252,15.528c.432,0,.871-.057,1.307-.176,1.022-.278,2.048-.544,3.079-.798,1.028-.254,2.06-.495,3.093-.724,1.036-.229,2.074-.445,3.113-.649,1.042-.204,2.085-.395,3.132-.574,1.047-.179,2.096-.345,3.15-.499,1.052-.154,2.106-.295,3.164-.423s2.117-.245,3.182-.348c1.063-.104,2.128-.194,3.196-.272,1.106-.081,2.211-.147,3.317-.201,1.104-.053,2.208-.093,3.311-.118,1.104-.025,2.214-.037,3.306-.035,1.102.002,2.203.019,3.3.048,1.099.03,2.198.073,3.295.131,1.098.057,2.193.129,3.286.213,1.094.085,2.187.183,3.278.296,2.726.281,5.163-1.699,5.444-4.424.282-2.725-1.699-5.163-4.424-5.444-1.175-.122-2.351-.228-3.531-.319-1.177-.091-2.355-.168-3.535-.229-1.179-.062-2.36-.108-3.544-.141-1.182-.032-2.364-.049-3.551-.051-1.184-.008-2.369.009-3.554.037-1.186.027-2.373.07-3.56.127-1.188.057-2.375.129-3.564.216-1.147.084-2.292.181-3.432.292-1.142.111-2.282.236-3.418.374-1.138.138-2.272.29-3.401.455-1.131.165-2.26.344-3.387.537-1.125.192-2.247.397-3.369.617-1.119.219-2.234.452-3.348.698-1.113.247-2.223.505-3.327.778-1.107.273-2.21.559-3.31.858-2.644.72-4.203,3.447-3.482,6.09.601,2.207,2.601,3.658,4.783,3.658Z"/>
    <path class="uuid-e8445d92-fd44-4f48-b375-d508b5e13d72" d="M48.873,47.34c1.207,0,2.417-.438,3.371-1.322.779-.722,1.566-1.434,2.36-2.135.795-.701,1.598-1.394,2.412-2.077.811-.682,1.631-1.354,2.457-2.015.828-.663,1.664-1.314,2.507-1.956s1.695-1.273,2.551-1.894c.86-.622,1.728-1.234,2.601-1.834.875-.601,1.757-1.191,2.648-1.773.89-.581,1.787-1.15,2.693-1.71.905-.56,1.818-1.109,2.736-1.648.92-.539,1.848-1.067,2.785-1.586.936-.519,1.878-1.026,2.826-1.522.95-.497,1.907-.983,2.873-1.459.964-.476,1.932-.939,2.904-1.39.973-.451,1.949-.891,2.93-1.317.98-.427,1.964-.841,2.951-1.243,2.538-1.033,3.757-3.927,2.725-6.465-1.033-2.537-3.926-3.756-6.465-2.725-1.062.432-2.119.877-3.17,1.335-1.053.458-2.101.93-3.145,1.415-1.044.484-2.084.982-3.119,1.492-1.035.511-2.062,1.032-3.084,1.567-1.019.534-2.031,1.078-3.033,1.634-1.005.556-2.001,1.124-2.991,1.704-.989.579-1.97,1.169-2.941,1.771-.973.602-1.938,1.215-2.894,1.838-.957.624-1.905,1.259-2.848,1.907-.939.646-1.871,1.302-2.796,1.971-.923.668-1.838,1.348-2.745,2.038s-1.805,1.391-2.696,2.104c-.89.712-1.771,1.435-2.642,2.167-.873.733-1.737,1.478-2.594,2.233-.855.755-1.702,1.521-2.539,2.297-2.009,1.862-2.128,5.001-.266,7.01.978,1.055,2.307,1.588,3.639,1.588Z"/>
    <path class="uuid-e8445d92-fd44-4f48-b375-d508b5e13d72" d="M19.46,81.34c.756.415,1.573.611,2.379.611,1.753,0,3.453-.932,4.355-2.578.528-.964,1.068-1.92,1.619-2.868.552-.949,1.116-1.891,1.692-2.827.574-.934,1.161-1.861,1.76-2.78.599-.92,1.209-1.833,1.83-2.737.623-.906,1.257-1.804,1.903-2.695,1.607-2.218,1.112-5.32-1.106-6.928-2.218-1.607-5.32-1.112-6.928,1.106-.693.957-1.375,1.922-2.044,2.897-.669.974-1.326,1.955-1.97,2.945-.645.991-1.276,1.989-1.895,2.994-.619,1.005-1.225,2.019-1.82,3.042-.593,1.021-1.174,2.049-1.742,3.085-1.316,2.402-.436,5.417,1.967,6.734Z"/>
    <path class="uuid-e8445d92-fd44-4f48-b375-d508b5e13d72" d="M6.465,110.144c.141.818.323,1.638.543,2.442.219.799.479,1.596.77,2.363.292.771.626,1.538.993,2.282.365.741.771,1.472,1.203,2.171.435.703.909,1.395,1.41,2.054.5.659,1.04,1.303,1.606,1.917.568.614,1.173,1.208,1.796,1.762.628.559,1.293,1.095,1.979,1.594.692.502,1.415.975,2.15,1.405.787.46,1.648.679,2.498.679,1.706,0,3.365-.88,4.288-2.458,1.382-2.365.585-5.403-1.78-6.786-.452-.264-.896-.555-1.321-.863-.421-.307-.831-.636-1.218-.981-.385-.342-.757-.708-1.104-1.083-.35-.379-.684-.777-.993-1.185-.31-.408-.602-.834-.872-1.27-.268-.434-.519-.886-.745-1.344-.227-.459-.433-.933-.614-1.413-.181-.477-.342-.969-.477-1.46-.135-.495-.248-1.003-.335-1.509-.088-.509-.151-1.026-.188-1.539-.038-.517-.05-1.042-.037-1.56.014-.525.054-1.054.12-1.576.066-.529.161-1.061.28-1.58.122-.529.273-1.061.45-1.583.359-1.058.73-2.11,1.115-3.158.383-1.045.779-2.083,1.188-3.116,1.007-2.548-.242-5.43-2.79-6.437-2.547-1.009-5.43.242-6.437,2.79-.438,1.109-.864,2.225-1.275,3.346-.412,1.123-.811,2.252-1.196,3.388-.284.836-.527,1.692-.723,2.546-.194.844-.347,1.707-.455,2.562-.107.847-.172,1.709-.194,2.564-.021.844-.001,1.698.06,2.536.061.832.164,1.673.306,2.501Z"/>
    <path class="uuid-e8445d92-fd44-4f48-b375-d508b5e13d72" d="M38.838,130.771c.8-.219,1.596-.479,2.366-.771.768-.292,1.534-.625,2.277-.991.737-.364,1.468-.769,2.175-1.205.702-.434,1.392-.907,2.052-1.408.661-.501,1.305-1.042,1.915-1.605.613-.566,1.207-1.17,1.766-1.799.561-.63,1.096-1.295,1.592-1.977.502-.691.976-1.415,1.404-2.149.435-.743.838-1.52,1.201-2.313.365-.799.693-1.626.976-2.46.484-1.426,1.008-2.854,1.557-4.244.552-1.399,1.142-2.791,1.751-4.137.612-1.353,1.264-2.706,1.938-4.021s1.389-2.628,2.123-3.901c.735-1.274,1.51-2.545,2.303-3.778.793-1.231,1.627-2.459,2.479-3.649.853-1.19,1.744-2.373,2.65-3.515.904-1.14,1.852-2.276,2.817-3.377.96-1.095,1.962-2.183,2.979-3.234,1.014-1.047,2.07-2.086,3.139-3.086,1.066-.998,2.174-1.985,3.293-2.934,1.118-.947,2.277-1.882,3.444-2.777,2.174-1.667,2.585-4.781.918-6.955-1.667-2.175-4.781-2.585-6.955-.919-1.296.994-2.582,2.031-3.824,3.083-1.243,1.054-2.473,2.15-3.657,3.259-1.188,1.112-2.361,2.266-3.487,3.429-1.13,1.167-2.244,2.377-3.312,3.594-1.072,1.223-2.125,2.486-3.129,3.752-1.006,1.269-1.997,2.582-2.944,3.906-.946,1.321-1.872,2.685-2.753,4.052-.881,1.368-1.741,2.779-2.557,4.194-.815,1.414-1.607,2.87-2.355,4.329-.749,1.458-1.472,2.959-2.15,4.459-.675,1.492-1.328,3.034-1.939,4.583-.608,1.541-1.188,3.122-1.724,4.7-.176.519-.38,1.033-.605,1.526-.224.49-.473.97-.742,1.429-.264.452-.554.896-.862,1.32-.305.419-.635.829-.979,1.216-.344.386-.709.758-1.087,1.107-.377.349-.775.683-1.18.99-.409.311-.837.604-1.27.872-.437.271-.89.521-1.345.746-.461.227-.937.434-1.413.615-.476.181-.968.341-1.465.477-2.642.724-4.198,3.453-3.474,6.095.604,2.204,2.602,3.651,4.781,3.651.434,0,.875-.058,1.313-.178Z"/>
    <path class="uuid-e8445d92-fd44-4f48-b375-d508b5e13d72" d="M174.553,48.07c-1.577-.535-3.184-1.038-4.778-1.493-1.591-.455-3.212-.876-4.816-1.25-1.6-.374-3.23-.713-4.847-1.008-1.615-.294-3.253-.552-4.869-.765-1.621-.214-3.264-.39-4.884-.523-1.621-.133-3.266-.229-4.89-.282-1.615-.052-3.26-.066-4.892-.041-1.618.026-3.26.094-4.882.2-1.621.106-3.258.254-4.868.44-1.612.186-3.24.415-4.842.68-1.606.267-3.226.576-4.811.919-1.594.345-3.2.735-4.774,1.158-1.582.425-3.172.895-4.728,1.396-1.561.503-3.133,1.052-4.672,1.632-1.54.58-3.091,1.209-4.612,1.869-1.517.658-3.045,1.367-4.542,2.104-2.457,1.212-3.466,4.186-2.255,6.644.864,1.751,2.624,2.768,4.453,2.768.737,0,1.485-.165,2.19-.513,1.353-.667,2.733-1.307,4.104-1.902,1.373-.596,2.773-1.163,4.162-1.687,1.389-.524,2.807-1.019,4.215-1.473,1.401-.451,2.833-.875,4.26-1.257,1.417-.381,2.863-.732,4.299-1.042,1.428-.31,2.886-.588,4.331-.828,1.441-.238,2.909-.444,4.359-.612,1.447-.167,2.921-.3,4.38-.396,1.459-.096,2.938-.156,4.394-.18,1.467-.024,2.947-.011,4.402.037,1.462.048,2.944.134,4.405.254,1.458.12,2.938.279,4.398.472,1.456.192,2.932.424,4.387.689,1.457.266,2.928.572,4.371.909,1.448.338,2.91.718,4.347,1.128,1.439.412,2.892.865,4.316,1.349,2.594.881,5.412-.508,6.292-3.103.881-2.594-.509-5.411-3.103-6.292Z"/>
    <path class="uuid-e8445d92-fd44-4f48-b375-d508b5e13d72" d="M241.139,161.016c.294-1.613.551-3.251.765-4.867.213-1.608.39-3.251.524-4.886.134-1.625.229-3.271.282-4.89.054-1.627.067-3.273.041-4.892-.027-1.628-.094-3.271-.2-4.881-.106-1.612-.254-3.25-.44-4.867-.186-1.613-.415-3.243-.68-4.843-.265-1.604-.574-3.223-.919-4.813-.345-1.593-.734-3.198-1.157-4.772-.423-1.575-.893-3.165-1.396-4.727-.502-1.559-1.051-3.131-1.633-4.674-.58-1.539-1.209-3.09-1.869-4.611-.662-1.526-1.37-3.054-2.104-4.542-.735-1.49-1.517-2.981-2.324-4.435-.803-1.447-1.652-2.891-2.521-4.289-.869-1.4-1.782-2.793-2.714-4.141-.93-1.344-1.906-2.684-2.901-3.983-.99-1.292-2.027-2.578-3.083-3.825-1.059-1.248-2.155-2.479-3.259-3.657-1.112-1.188-2.266-2.361-3.429-3.487-1.167-1.13-2.377-2.244-3.593-3.311-1.217-1.067-2.479-2.12-3.753-3.131-1.271-1.007-2.584-1.998-3.905-2.943-1.324-.948-2.688-1.875-4.052-2.753-1.362-.877-2.773-1.738-4.193-2.557-2.372-1.37-5.406-.555-6.775,1.818-1.369,2.373-.555,5.407,1.818,6.775,1.28.738,2.551,1.514,3.779,2.304,1.229.792,2.457,1.625,3.648,2.478,1.189.852,2.372,1.744,3.515,2.65,1.146.909,2.282,1.857,3.377,2.818,1.095.96,2.183,1.962,3.234,2.979,1.047,1.014,2.086,2.07,3.087,3.14.993,1.061,1.98,2.168,2.933,3.292.951,1.122,1.885,2.281,2.776,3.444.898,1.171,1.778,2.379,2.615,3.59.84,1.215,1.663,2.471,2.448,3.734.785,1.263,1.55,2.565,2.276,3.871.729,1.312,1.435,2.66,2.099,4.006.663,1.344,1.303,2.725,1.901,4.102.596,1.374,1.164,2.774,1.687,4.163.524,1.391,1.02,2.808,1.472,4.214.454,1.408.876,2.841,1.257,4.259.381,1.418.732,2.865,1.043,4.301.31,1.431.588,2.888.827,4.333.239,1.441.445,2.907.612,4.358.168,1.456.301,2.929.396,4.381.095,1.449.156,2.927.18,4.394.024,1.456.011,2.937-.037,4.402-.048,1.458-.133,2.939-.253,4.401-.122,1.471-.28,2.951-.472,4.4-.192,1.458-.424,2.934-.69,4.388-.491,2.695,1.295,5.279,3.99,5.771.301.055.601.081.896.081,2.35,0,4.438-1.677,4.875-4.071Z"/>
    <path class="uuid-e8445d92-fd44-4f48-b375-d508b5e13d72" d="M181.922,224.746c-2.288,1.507-2.92,4.584-1.413,6.872.954,1.447,2.534,2.232,4.146,2.232.937,0,1.884-.265,2.725-.819.453-.298.93-.579,1.417-.833,1.431-.748,2.857-1.537,4.24-2.345,1.385-.81,2.765-1.662,4.102-2.531,1.335-.869,2.667-1.78,3.96-2.711,1.284-.925,2.566-1.896,3.812-2.887,1.243-.989,2.474-2.017,3.659-3.056,1.191-1.044,2.37-2.127,3.503-3.22,1.137-1.097,2.26-2.233,3.338-3.377,1.082-1.147,2.149-2.335,3.174-3.532,1.023-1.195,2.033-2.433,3.001-3.679.97-1.249,1.92-2.534,2.825-3.82.908-1.291,1.797-2.622,2.642-3.955.845-1.331,1.672-2.707,2.458-4.087.785-1.377,1.547-2.794,2.268-4.212.722-1.423,1.419-2.88,2.071-4.331.656-1.46,1.286-2.955,1.871-4.444,1.002-2.55-.252-5.429-2.801-6.432-2.552-1.003-5.43.252-6.432,2.801-.528,1.343-1.096,2.692-1.688,4.009-.587,1.308-1.216,2.621-1.868,3.904-.648,1.277-1.335,2.554-2.042,3.795-.708,1.244-1.453,2.483-2.214,3.682-.762,1.201-1.562,2.4-2.38,3.563-.814,1.157-1.669,2.315-2.543,3.44-.872,1.122-1.781,2.236-2.702,3.312-.922,1.077-1.883,2.146-2.857,3.179-.972,1.031-1.984,2.055-3.007,3.042-1.02.983-2.081,1.959-3.154,2.9-1.068.936-2.177,1.862-3.295,2.752-1.123.892-2.279,1.768-3.436,2.601-1.165.839-2.366,1.662-3.571,2.445-1.206.784-2.451,1.552-3.7,2.283-1.248.729-2.535,1.441-3.827,2.117-.782.409-1.55.86-2.281,1.342Z"/>
    <path class="uuid-e8445d92-fd44-4f48-b375-d508b5e13d72" d="M199.713,261.99c-.263.059-.526.111-.791.157-.265.046-.531.085-.797.117-.267.032-.534.058-.802.076-.266.019-.533.03-.792.035-.266.005-.534.004-.802-.005-.266-.008-.531-.023-.796-.044-.264-.021-.527-.049-.79-.083-.263-.034-.525-.076-.779-.122-.26-.047-.519-.101-.784-.163-.256-.059-.511-.125-.765-.198-.254-.072-.506-.151-.752-.235-.236-.08-.47-.165-.702-.256-.233-.091-.464-.188-.685-.287-.228-.102-.454-.209-.678-.322-.223-.112-.444-.229-.665-.354-.215-.121-.428-.248-.643-.382-.21-.131-.417-.269-.626-.414-.202-.14-.402-.286-.606-.442-.197-.151-.391-.307-.585-.471-.192-.162-.38-.328-.564-.5-.185-.172-.366-.349-.544-.531-.177-.18-.349-.365-.521-.559-.17-.192-.337-.389-.496-.586-.162-.201-.319-.407-.47-.615-.154-.212-.304-.429-.446-.646-.144-.22-.283-.443-.42-.678-.134-.229-.264-.463-.388-.701-.253-.485-.484-.987-.686-1.492-.2-.5-.375-1.011-.521-1.523-.145-.503-.266-1.019-.359-1.536-.093-.511-.161-1.031-.203-1.547-.042-.514-.059-1.036-.051-1.547.008-.515.042-1.034.1-1.542.308-2.722-1.649-5.179-4.371-5.487-2.72-.306-5.179,1.648-5.487,4.371-.093.823-.147,1.661-.161,2.497-.013.834.014,1.68.082,2.513.068.84.18,1.688.33,2.516.152.84.35,1.683.585,2.501.237.827.521,1.656.844,2.465.326.815.698,1.625,1.107,2.408.2.384.409.76.623,1.124.217.37.441.732.677,1.092.232.354.471.7.719,1.042.248.34.502.673.767,1.002.262.325.53.643.802.949.277.312.561.617.851.914.288.295.583.583.883.862.302.281.61.554.92.815.313.265.634.523.951.765.326.25.657.492.989.722.334.232.674.457,1.014.668.345.216.693.424,1.044.621.351.198.707.387,1.065.568.358.18.721.353,1.096.52.365.163.735.317,1.107.463.374.146.751.284,1.134.414.404.137.811.264,1.22.381.412.117.826.225,1.235.32.416.097.834.184,1.262.261.42.076.841.142,1.265.197.425.056.852.101,1.28.136.427.034.855.058,1.285.072.266.008.533.012.801.012.164,0,.329-.001.494-.005.432-.008.865-.027,1.296-.057.432-.03.864-.071,1.294-.123.433-.052.866-.116,1.298-.19.433-.075.866-.16,1.297-.258,2.672-.605,4.348-3.262,3.743-5.934-.605-2.672-3.263-4.35-5.934-3.742Z"/>
    <path class="uuid-e8445d92-fd44-4f48-b375-d508b5e13d72" d="M238.716,234.013c-1.429,1.516-2.91,3.014-4.4,4.452-1.5,1.446-3.054,2.875-4.616,4.244-1.572,1.377-3.195,2.733-4.825,4.029-1.632,1.298-3.323,2.579-5.026,3.806-1.704,1.227-3.461,2.431-5.223,3.576-2.297,1.494-2.948,4.566-1.455,6.863.951,1.462,2.541,2.257,4.164,2.257.927,0,1.865-.26,2.699-.803,1.894-1.231,3.782-2.524,5.613-3.844,1.831-1.319,3.649-2.696,5.403-4.091,1.752-1.393,3.497-2.851,5.188-4.332,1.68-1.473,3.35-3.008,4.963-4.563,1.604-1.547,3.197-3.158,4.734-4.788,1.879-1.994,1.786-5.133-.207-7.013-1.995-1.88-5.134-1.787-7.013.207Z"/>
    <path class="uuid-e8445d92-fd44-4f48-b375-d508b5e13d72" d="M278.877,159.056c-2.705-.419-5.241,1.438-5.659,4.146-.167,1.086-.349,2.171-.543,3.253-.195,1.083-.404,2.164-.626,3.243s-.458,2.157-.708,3.23c-.25,1.077-.514,2.151-.79,3.221-.278,1.072-.569,2.143-.873,3.209-.305,1.068-.624,2.135-.955,3.196-.333,1.064-.679,2.126-1.037,3.184-.684,2.015-1.424,4.037-2.201,6.011-.772,1.965-1.603,3.938-2.469,5.864-.864,1.922-1.783,3.844-2.732,5.712-.95,1.871-1.956,3.739-2.989,5.553-1.033,1.815-2.123,3.627-3.239,5.387-1.121,1.767-2.292,3.521-3.483,5.213-1.577,2.241-1.038,5.335,1.203,6.912.868.611,1.864.904,2.85.904,1.56,0,3.096-.734,4.062-2.106,1.281-1.821,2.542-3.708,3.748-5.608,1.2-1.893,2.372-3.841,3.482-5.792,1.111-1.95,2.192-3.959,3.213-5.97,1.02-2.008,2.008-4.073,2.936-6.139.93-2.069,1.822-4.188,2.652-6.3.833-2.119,1.627-4.29,2.362-6.454.385-1.135.756-2.273,1.113-3.416.355-1.141.697-2.284,1.024-3.432.327-1.146.639-2.294.937-3.446.297-1.15.581-2.304.849-3.46.269-1.155.522-2.314.761-3.474s.463-2.322.673-3.486c.209-1.164.404-2.33.584-3.498.417-2.708-1.439-5.241-4.146-5.659Z"/>
    <path class="uuid-e8445d92-fd44-4f48-b375-d508b5e13d72" d="M284.286,132.85c-.084-1.148-.181-2.292-.292-3.433-.111-1.142-.236-2.282-.374-3.419s-.29-2.272-.455-3.401c-.165-1.132-.344-2.261-.536-3.384-.192-1.126-.398-2.25-.617-3.369-.219-1.12-.452-2.236-.698-3.349-.246-1.114-.505-2.223-.778-3.331-.273-1.106-.559-2.209-.859-3.309-.3-1.1-.612-2.196-.939-3.289-.326-1.092-.666-2.181-1.018-3.266-.353-1.085-.719-2.167-1.099-3.245-.379-1.077-.771-2.15-1.177-3.217-.405-1.07-.825-2.136-1.257-3.197-.432-1.061-.877-2.118-1.335-3.171-.458-1.053-.93-2.102-1.415-3.146-.484-1.043-.981-2.081-1.492-3.118-.511-1.035-1.033-2.062-1.566-3.081-.533-1.02-1.079-2.032-1.635-3.036-.557-1.005-1.125-2.002-1.703-2.99-.58-.989-1.169-1.97-1.771-2.942s-1.214-1.937-1.838-2.894c-.624-.957-1.26-1.906-1.906-2.846-.646-.94-1.304-1.873-1.972-2.796s-1.348-1.838-2.037-2.746c-.69-.907-1.392-1.805-2.104-2.697-.712-.89-1.435-1.771-2.167-2.642-.733-.873-1.478-1.737-2.233-2.594-.755-.854-1.52-1.701-2.296-2.539-.776-.837-1.562-1.666-2.359-2.485s-1.604-1.63-2.423-2.433c-.818-.801-1.646-1.594-2.483-2.376-.839-.784-1.688-1.558-2.548-2.323-.89-.792-1.789-1.572-2.695-2.339-.908-.768-1.824-1.524-2.748-2.267-.925-.744-1.857-1.475-2.8-2.195-.94-.718-1.889-1.424-2.847-2.119s-1.924-1.376-2.897-2.045c-2.258-1.552-5.347-.98-6.897,1.279-1.552,2.258-.979,5.346,1.279,6.897.905.622,1.803,1.256,2.692,1.901.891.646,1.774,1.303,2.648,1.971.875.668,1.743,1.349,2.604,2.041.859.691,1.711,1.394,2.556,2.109.844.714,1.681,1.441,2.509,2.178.8.712,1.589,1.432,2.371,2.162.78.729,1.551,1.466,2.311,2.211.761.746,1.513,1.5,2.254,2.263s1.474,1.534,2.195,2.312c.722.779,1.434,1.566,2.135,2.361.701.795,1.394,1.598,2.077,2.412.682.811,1.354,1.63,2.014,2.455.662.828,1.314,1.664,1.956,2.507.641.843,1.273,1.695,1.895,2.554s1.233,1.726,1.833,2.6c.601.875,1.192,1.756,1.772,2.646.58.89,1.151,1.787,1.71,2.692s1.109,1.818,1.649,2.739c.539.92,1.067,1.847,1.585,2.782.518.936,1.025,1.877,1.522,2.828s.984,1.908,1.458,2.87c.476.966.94,1.936,1.392,2.908.451.972.89,1.949,1.316,2.928.427.98.841,1.964,1.243,2.952.402.987.792,1.978,1.169,2.975.378.995.743,1.994,1.096,2.996.353,1.002.693,2.008,1.021,3.017.328,1.009.644,2.022.948,3.038.303,1.016.594,2.035.873,3.057.278,1.022.545,2.048.798,3.076.253,1.029.495,2.061.724,3.096.229,1.035.445,2.073.649,3.114.204,1.04.395,2.083.574,3.132.179,1.046.345,2.095.499,3.149.154,1.052.295,2.107.423,3.164.128,1.058.245,2.118.348,3.183.104,1.063.194,2.128.272,3.197.081,1.105.148,2.211.201,3.316.053,1.104.092,2.208.118,3.311.062,2.7,2.271,4.846,4.957,4.846.039,0,.078,0,.117,0,2.739-.063,4.908-2.335,4.845-5.074-.027-1.186-.069-2.373-.126-3.56-.057-1.187-.13-2.375-.217-3.563Z"/>
    <path class="uuid-e8445d92-fd44-4f48-b375-d508b5e13d72" d="M175.248,14.907c1.071.277,2.14.568,3.209.873,1.067.304,2.131.623,3.196.955,1.063.332,2.123.677,3.183,1.037,1.058.359,2.11.73,3.158,1.115,1.045.383,2.083.779,3.117,1.188,1.032.408,2.058.828,3.075,1.259,1.02.433,2.033.878,3.037,1.333,1.005.457,2.004.925,2.996,1.406.991.48,1.976.973,2.954,1.477.728.375,1.504.553,2.271.553,1.797,0,3.532-.98,4.413-2.687,1.256-2.435.3-5.427-2.134-6.683-1.052-.542-2.11-1.072-3.176-1.588-1.066-.516-2.139-1.02-3.222-1.511-1.08-.49-2.166-.967-3.261-1.432-1.095-.464-2.197-.916-3.305-1.354-1.109-.438-2.225-.864-3.346-1.275-1.123-.412-2.252-.811-3.386-1.196-1.137-.386-2.276-.757-3.416-1.112-1.142-.357-2.286-.699-3.431-1.025-1.147-.328-2.296-.64-3.448-.938-2.651-.689-5.358.91-6.043,3.562-.686,2.652.909,5.358,3.562,6.043Z"/>
    <path class="uuid-e8445d92-fd44-4f48-b375-d508b5e13d72" d="M217.472,238.502c1.479-1.165,2.952-2.381,4.376-3.615,1.428-1.237,2.846-2.524,4.214-3.826,1.377-1.311,2.737-2.668,4.042-4.033,1.318-1.379,2.616-2.804,3.859-4.234,1.257-1.446,2.491-2.938,3.669-4.432,1.696-2.152,1.327-5.271-.825-6.967-2.151-1.696-5.27-1.327-6.967.825-1.081,1.371-2.213,2.739-3.367,4.067-1.14,1.312-2.332,2.62-3.542,3.886-1.197,1.252-2.445,2.498-3.709,3.701-1.256,1.196-2.557,2.377-3.868,3.513-1.308,1.133-2.661,2.25-4.02,3.32-1.36,1.071-2.76,2.122-4.163,3.124-1.394.996-2.839,1.979-4.296,2.922-1.451.938-2.939,1.853-4.424,2.717-1.484.865-3.013,1.709-4.543,2.509-2.428,1.269-3.368,4.266-2.099,6.694.885,1.695,2.613,2.664,4.401,2.664.774,0,1.56-.182,2.293-.565,1.665-.87,3.328-1.789,4.943-2.729,1.616-.942,3.236-1.938,4.816-2.959,1.586-1.026,3.16-2.096,4.676-3.18,1.527-1.091,3.052-2.235,4.533-3.401Z"/>
    <path class="uuid-e8445d92-fd44-4f48-b375-d508b5e13d72" d="M252.81,193.398c.82-1.812,1.607-3.669,2.339-5.521.738-1.869,1.44-3.782,2.085-5.685,1.329-3.915,2.471-7.935,3.394-11.95.909-3.953,1.625-7.992,2.131-12.005.499-3.961.804-7.993.906-11.982.101-3.946.006-7.942-.282-11.877-.285-3.899-.767-7.833-1.431-11.694-.66-3.833-1.515-7.68-2.542-11.433-.723-2.643-3.45-4.201-6.094-3.476-2.643.723-4.199,3.451-3.476,6.094.942,3.446,1.728,6.978,2.334,10.498.609,3.543,1.051,7.155,1.313,10.734.264,3.611.351,7.278.258,10.9-.094,3.661-.374,7.36-.832,10.996-.464,3.685-1.123,7.394-1.957,11.023-.849,3.69-1.898,7.385-3.12,10.985-.594,1.751-1.239,3.51-1.917,5.228-.672,1.701-1.396,3.408-2.149,5.073-.751,1.658-1.549,3.312-2.373,4.914-1.251,2.438-.29,5.428,2.147,6.679.725.372,1.5.549,2.262.549,1.8,0,3.538-.984,4.417-2.696.896-1.746,1.766-3.546,2.584-5.353Z"/>
    <path class="uuid-e8445d92-fd44-4f48-b375-d508b5e13d72" d="M78.386,39.953c-3.295,2.037-6.532,4.259-9.619,6.603-2.182,1.657-2.607,4.769-.951,6.951s4.768,2.607,6.951.951c2.835-2.153,5.809-4.194,8.836-6.065,3.025-1.87,6.174-3.615,9.36-5.186,3.186-1.572,6.486-3.009,9.811-4.271,3.326-1.263,6.754-2.38,10.191-3.32,3.446-.942,6.978-1.728,10.498-2.334,3.543-.609,7.154-1.051,10.734-1.313,3.61-.264,7.279-.35,10.899-.258,3.66.094,7.359.374,10.995.832,3.687.464,7.396,1.123,11.024,1.957,3.69.849,7.385,1.898,10.984,3.12,3.606,1.224,7.177,2.64,10.614,4.21,3.387,1.546,6.73,3.281,9.938,5.156,3.16,1.847,6.266,3.876,9.231,6.032,2.928,2.129,5.785,4.43,8.491,6.839,2.68,2.386,5.277,4.935,7.717,7.575,2.423,2.622,4.748,5.395,6.91,8.241,2.154,2.836,4.194,5.809,6.065,8.837,1.868,3.021,3.613,6.17,5.186,9.359.864,1.751,2.623,2.768,4.453,2.768.737,0,1.485-.165,2.19-.513,2.457-1.211,3.466-4.186,2.254-6.643-1.711-3.471-3.611-6.898-5.644-10.187-2.037-3.295-4.258-6.532-6.604-9.621-2.354-3.1-4.886-6.119-7.524-8.975-2.659-2.876-5.488-5.653-8.408-8.252-2.949-2.625-6.062-5.132-9.252-7.452-3.231-2.349-6.616-4.561-10.059-6.573-3.494-2.042-7.135-3.932-10.824-5.616-3.74-1.708-7.625-3.249-11.546-4.58-3.915-1.329-7.935-2.471-11.95-3.394-3.952-.908-7.991-1.625-12.006-2.132-3.963-.499-7.994-.804-11.982-.906-3.946-.101-7.942-.006-11.877.282-3.9.285-7.834.767-11.694,1.431-3.833.66-7.68,1.515-11.433,2.542-3.741,1.023-7.473,2.239-11.094,3.614-3.618,1.374-7.211,2.938-10.678,4.648-3.468,1.71-6.896,3.609-10.188,5.645Z"/>
    <path class="uuid-e8445d92-fd44-4f48-b375-d508b5e13d72" d="M27.318,104.169c-.881,2.594.509,5.411,3.103,6.292.528.18,1.066.265,1.595.265,2.067,0,3.996-1.302,4.697-3.368,1.223-3.604,2.64-7.174,4.21-10.614,1.548-3.391,3.283-6.734,5.156-9.938,1.849-3.163,3.878-6.269,6.032-9.231,2.131-2.93,4.432-5.787,6.839-8.491,1.821-2.047,1.639-5.182-.408-7.004-2.046-1.822-5.183-1.639-7.003.408-2.623,2.947-5.13,6.06-7.452,9.252-2.347,3.228-4.559,6.612-6.573,10.059-2.041,3.49-3.93,7.132-5.616,10.824-1.709,3.742-3.25,7.627-4.58,11.546Z"/>
    <path class="uuid-e8445d92-fd44-4f48-b375-d508b5e13d72" d="M170.856,273.287c-.422-.398-.836-.807-1.24-1.226-.404-.419-.798-.848-1.184-1.289-.384-.439-.759-.888-1.124-1.346-.364-.458-.717-.924-1.063-1.405-.343-.476-.676-.962-.996-1.455-.323-.497-.635-1.002-.935-1.516-.3-.513-.588-1.034-.865-1.563-.287-.549-.559-1.103-.817-1.662-.257-.557-.499-1.117-.729-1.686-.228-.564-.441-1.132-.641-1.707-.199-.571-.383-1.147-.553-1.726-.17-.579-.325-1.161-.466-1.742-.141-.585-.267-1.172-.378-1.759-.111-.588-.208-1.178-.291-1.774-.083-.593-.15-1.187-.203-1.779-.053-.596-.091-1.193-.115-1.791-.019-.482-.028-.964-.028-1.444,0-.117,0-.233.001-.35.006-.6.027-1.201.062-1.798.036-.6.086-1.199.151-1.802.065-.6.145-1.2.239-1.794.095-.599.206-1.198.331-1.797.125-.597.265-1.192.419-1.786.155-.594.325-1.187.51-1.776.186-.59.384-1.174.597-1.75.212-.576.438-1.146.676-1.708.238-.561.49-1.115.753-1.66.264-.545.541-1.083.83-1.612.289-.53.59-1.051.904-1.564.313-.513.639-1.017.975-1.51.338-.495.688-.982,1.049-1.46.36-.477.732-.944,1.117-1.404.383-.458.778-.907,1.182-1.345.407-.44.824-.87,1.252-1.29.427-.419.866-.828,1.316-1.229.449-.399.908-.787,1.379-1.166.469-.378.949-.744,1.438-1.1.492-.357.993-.702,1.501-1.035.511-.334,1.031-.657,1.559-.966.532-.311,1.072-.61,1.62-.897,1.134-.592,2.262-1.216,3.355-1.855,1.577-.922,2.457-2.581,2.458-4.285,0-.851-.219-1.713-.679-2.501-1.382-2.365-4.419-3.162-6.786-1.778-.957.56-1.947,1.106-2.942,1.627-.691.361-1.37.737-2.041,1.13-.669.393-1.326.799-1.974,1.223-.646.422-1.279.858-1.899,1.309-.623.452-1.233.919-1.828,1.397-.597.48-1.182.974-1.75,1.48-.572.507-1.129,1.028-1.674,1.562-.543.533-1.073,1.079-1.591,1.639-.517.56-1.02,1.131-1.506,1.713-.489.583-.963,1.18-1.422,1.787-.458.606-.902,1.224-1.332,1.854-.429.63-.843,1.271-1.241,1.922-.398.651-.78,1.312-1.148,1.985-.367.672-.717,1.354-1.052,2.045-.334.691-.653,1.393-.955,2.103-.301.709-.586,1.429-.854,2.157-.268.728-.52,1.464-.753,2.21s-.448,1.493-.644,2.243c-.196.751-.373,1.505-.53,2.258-.158.755-.297,1.512-.418,2.273-.12.759-.222,1.52-.304,2.276-.083.761-.147,1.523-.192,2.289-.045.762-.071,1.522-.079,2.287-.001.149-.002.297-.002.446,0,.612.012,1.225.036,1.836.03.76.079,1.519.146,2.28.068.758.154,1.513.258,2.264.104.754.228,1.505.37,2.257.142.748.302,1.493.481,2.238.179.742.376,1.48.591,2.213.216.735.45,1.466.702,2.19.252.726.523,1.448.812,2.16.289.716.596,1.428.922,2.133.325.703.667,1.401,1.029,2.093.35.67.715,1.33,1.095,1.979.379.648.772,1.285,1.18,1.914.408.627.832,1.245,1.265,1.846.436.606.886,1.201,1.349,1.783.463.582.938,1.152,1.426,1.708.489.558.99,1.104,1.504,1.637.514.534,1.041,1.054,1.577,1.559.462.436.937.858,1.417,1.275.939.816,2.098,1.216,3.251,1.216,1.386,0,2.766-.579,3.747-1.708.816-.939,1.216-2.098,1.216-3.251,0-1.387-.579-2.766-1.708-3.747-.377-.328-.752-.659-1.118-1.005Z"/>
    <path class="uuid-e8445d92-fd44-4f48-b375-d508b5e13d72" d="M146.229,275.644c-.469-.803-.925-1.628-1.356-2.452-.447-.856-.877-1.731-1.278-2.599-.402-.872-.786-1.759-1.142-2.64-.354-.877-.692-1.776-1.004-2.674-.309-.888-.601-1.798-.867-2.706-.266-.903-.511-1.822-.73-2.733-.221-.917-.42-1.845-.593-2.757-.173-.917-.327-1.852-.456-2.778-.128-.924-.235-1.865-.318-2.795-.082-.923-.143-1.868-.18-2.806-.03-.746-.044-1.499-.044-2.246,0-.191,0-.381.003-.571.009-.935.042-1.883.097-2.817.006-.099.009-.197.009-.294.001-2.607-2.031-4.794-4.667-4.951-2.728-.149-5.083,1.924-5.246,4.659-.065,1.098-.103,2.211-.114,3.307-.002.222-.003.445-.003.668,0,.876.018,1.761.052,2.638.043,1.102.115,2.21.211,3.293.097,1.092.223,2.195.374,3.282.151,1.088.332,2.184.535,3.258.203,1.072.438,2.161.696,3.234.257,1.068.546,2.148.857,3.207.312,1.063.654,2.13,1.016,3.169.365,1.05.76,2.104,1.175,3.129.415,1.029.864,2.066,1.334,3.084.468,1.014.97,2.034,1.492,3.033.503.962,1.036,1.926,1.583,2.862.503.863,1.051,1.751,1.627,2.642.949,1.468,2.542,2.267,4.17,2.267.923,0,1.856-.258,2.689-.796,1.467-.949,2.266-2.541,2.267-4.167,0-.924-.257-1.858-.796-2.692-.479-.74-.943-1.492-1.391-2.257Z"/>
    <path class="uuid-e8445d92-fd44-4f48-b375-d508b5e13d72" d="M123.003,275.767c-.484-1.198-.944-2.423-1.368-3.643-.421-1.21-.819-2.45-1.182-3.686-.359-1.225-.694-2.478-.995-3.725-.297-1.232-.569-2.496-.808-3.756-.51-2.691-3.106-4.459-5.798-3.95-2.379.451-4.037,2.531-4.038,4.867,0,.307.028.618.087.931.27,1.42.576,2.845.911,4.234.338,1.404.715,2.815,1.121,4.195.408,1.39.856,2.786,1.331,4.149.477,1.371.994,2.749,1.539,4.099.096.237.196.473.295.709l.124.292c.796,1.901,2.638,3.046,4.578,3.046.639,0,1.288-.124,1.914-.386,1.9-.795,3.045-2.636,3.046-4.575,0-.64-.124-1.29-.386-1.917l-.371-.887Z"/>
    <path class="uuid-e8445d92-fd44-4f48-b375-d508b5e13d72" d="M111.101,194.105c.843-1.378,1.732-2.754,2.64-4.087.911-1.336,1.864-2.663,2.833-3.944.967-1.28,1.983-2.557,3.019-3.795,1.034-1.235,2.112-2.461,3.204-3.643,1.093-1.183,2.231-2.355,3.382-3.483,1.154-1.131,2.35-2.248,3.558-3.32,1.204-1.069,2.458-2.129,3.727-3.15,2.135-1.717,2.473-4.84.756-6.975-1.717-2.135-4.84-2.473-6.975-.756-.227.183-.449.372-.675.557.054-.092.112-.183.166-.275,1.848-3.158,3.555-6.446,5.076-9.774,1.544-3.378,2.936-6.886,4.136-10.422.038-.113.079-.224.124-.337.043-.11.088-.217.131-.313.046-.102.094-.203.149-.312.049-.097.101-.192.152-.281.054-.094.109-.186.166-.273.058-.091.118-.18.174-.259.063-.088.128-.175.195-.26.065-.082.132-.163.196-.235.069-.079.14-.156.22-.238.071-.074.145-.145.22-.215.076-.071.153-.14.239-.212.08-.068.162-.134.254-.204.084-.064.171-.127.262-.189.093-.063.188-.125.275-.179.097-.06.195-.118.301-.176.104-.058.21-.113.313-.164.108-.054.217-.104.316-.147.109-.047.219-.092.322-.131.104-.04.209-.077.33-.116.104-.034.208-.064.304-.091.105-.028.21-.054.313-.077.104-.023.21-.043.315-.061.101-.017.201-.031.316-.044.104-.012.209-.021.301-.027.105-.007.21-.011.315-.013.106-.001.213,0,.306.003.111.004.222.011.32.019.108.009.216.021.326.036.109.015.218.033.314.05.112.021.224.044.332.07.11.026.219.054.34.089.11.031.22.065.333.104.111.038.222.078.33.121.108.042.216.088.317.133.105.047.209.097.301.144.101.051.2.105.292.158.094.054.186.109.282.171.09.057.178.117.25.168.086.061.17.124.261.195.08.063.158.128.241.201.077.067.152.137.226.208.073.071.146.144.222.226.071.076.14.153.212.239.068.08.134.162.204.254.064.084.127.171.189.262.063.093.125.188.179.275.061.098.12.198.176.301.058.104.113.21.167.319.053.106.103.214.145.311.047.109.092.219.131.322.04.104.077.209.116.33.033.1.062.2.091.304.028.105.055.21.077.313.023.104.043.21.059.305.017.104.033.208.045.313.012.104.021.209.029.327.007.101.011.202.012.303.001.106,0,.212-.003.306-.004.107-.01.214-.02.333-.009.104-.021.208-.035.311-.015.109-.033.219-.05.316-.021.111-.044.221-.071.334-.027.113-.057.226-.088.335-.032.11-.066.222-.104.331-.038.11-.077.218-.119.325-.041.104-.083.208-.129.31-.045.102-.093.202-.138.29-.048.096-.098.189-.153.287-.051.091-.105.181-.157.263-.057.09-.116.18-.173.261-.058.082-.117.162-.184.249-.062.08-.125.157-.189.233-.067.079-.136.155-.207.23-1.877,1.995-1.782,5.135.213,7.012,1.995,1.877,5.135,1.781,7.012-.213.178-.189.353-.383.521-.581.171-.201.338-.405.493-.605.163-.209.319-.422.475-.645.148-.212.291-.428.433-.653.14-.222.274-.448.401-.673.129-.229.253-.461.377-.707.117-.232.229-.469.336-.709.107-.24.209-.483.306-.73.096-.245.187-.493.272-.746.089-.263.172-.526.249-.793.075-.263.144-.525.206-.785.062-.265.119-.53.17-.808.049-.266.092-.533.128-.8.037-.272.067-.545.088-.805.023-.27.04-.539.05-.82.009-.27.012-.54.007-.809-.004-.273-.015-.547-.033-.807-.018-.269-.042-.538-.073-.805-.031-.269-.069-.537-.116-.813-.044-.266-.096-.531-.154-.798-.058-.263-.123-.525-.193-.784-.072-.266-.151-.531-.232-.78-.084-.259-.175-.516-.275-.779-.096-.251-.197-.5-.31-.759-.109-.25-.225-.498-.347-.745-.121-.245-.248-.486-.378-.723-.132-.238-.269-.473-.417-.712-.143-.232-.292-.459-.443-.679-.155-.227-.316-.449-.476-.659-.166-.218-.337-.432-.508-.633-.176-.209-.357-.413-.537-.606-.186-.2-.377-.395-.573-.584-.196-.19-.396-.375-.595-.549-.205-.18-.415-.354-.621-.518-.211-.168-.428-.33-.662-.498-.22-.156-.444-.308-.667-.45-.227-.145-.458-.286-.699-.423-.233-.133-.469-.261-.719-.389-.239-.121-.481-.237-.732-.35-.247-.111-.497-.216-.75-.316-.254-.1-.512-.194-.771-.282-.264-.089-.528-.172-.782-.245-.265-.077-.531-.146-.799-.209-.265-.062-.529-.118-.806-.17-.267-.049-.534-.092-.8-.128-.268-.036-.537-.066-.817-.09-.265-.022-.53-.038-.808-.048-.27-.008-.537-.013-.809-.007-.27.004-.538.015-.82.033-.269.018-.538.042-.792.072-.272.032-.543.07-.814.116-.266.044-.531.096-.798.154-.263.058-.525.122-.795.196-.263.072-.523.149-.768.229-.259.084-.516.175-.779.275-.251.096-.5.197-.759.31-.248.108-.495.223-.746.347-.246.122-.486.248-.717.375-.241.133-.477.271-.717.419-.232.143-.459.292-.679.443-.227.155-.449.316-.659.477-.218.166-.432.337-.633.507-.209.176-.413.357-.612.542-.2.186-.395.377-.578.567-.188.194-.371.392-.555.601-.178.204-.351.411-.519.623-.166.209-.326.423-.487.648-.156.218-.307.442-.455.673-.145.227-.286.458-.423.699-.135.236-.265.476-.383.709-.124.242-.241.488-.358.748-.11.246-.215.496-.313.745-.099.253-.193.51-.283.774-1.094,3.223-2.361,6.416-3.766,9.491-1.383,3.026-2.936,6.016-4.616,8.887-1.656,2.83-3.474,5.608-5.404,8.258-1.905,2.618-3.967,5.174-6.126,7.598-2.139,2.399-4.423,4.724-6.789,6.908-2.351,2.17-4.836,4.252-7.387,6.187-2.541,1.928-5.206,3.756-7.92,5.433-2.71,1.675-5.532,3.238-8.389,4.647-2.859,1.41-5.817,2.698-8.792,3.828-2.561.973-3.849,3.837-2.876,6.399.752,1.981,2.638,3.201,4.639,3.201.585,0,1.181-.104,1.76-.324,3.268-1.241,6.518-2.656,9.659-4.205,3.138-1.548,6.238-3.265,9.215-5.104,2.982-1.843,5.91-3.851,8.702-5.969,1.089-.827,2.163-1.684,3.227-2.555-.594,1.01-1.179,2.028-1.738,3.052-.857,1.571-1.687,3.183-2.464,4.79-.784,1.621-1.536,3.278-2.235,4.926-.707,1.665-1.38,3.365-2.002,5.055-.625,1.698-1.218,3.44-1.764,5.179-.546,1.74-1.054,3.509-1.51,5.256-.456,1.745-.874,3.526-1.245,5.295-.368,1.758-.697,3.547-.979,5.319-.28,1.767-.52,3.562-.713,5.339-.193,1.779-.344,3.578-.449,5.348-.104,1.775-.167,3.575-.184,5.349-.018,1.769.009,3.567.079,5.345.07,1.769.185,3.562.342,5.328.156,1.758.359,3.543.604,5.306.244,1.752.535,3.526.865,5.274.333,1.752.711,3.513,1.125,5.23.076.316.157.632.239.948l.101.39c.571,2.244,2.589,3.738,4.804,3.738.405,0,.817-.05,1.228-.155,2.655-.676,4.259-3.376,3.583-6.031l-.11-.427c-.067-.259-.135-.519-.198-.784-.377-1.563-.721-3.164-1.023-4.754-.3-1.588-.565-3.2-.786-4.792-.222-1.602-.407-3.224-.549-4.821-.143-1.605-.247-3.234-.311-4.84-.063-1.615-.087-3.249-.071-4.856.016-1.613.072-3.249.167-4.862.095-1.608.232-3.245.408-4.861.176-1.615.394-3.249.649-4.855.256-1.612.556-3.242.891-4.842.337-1.61.718-3.232,1.133-4.822.416-1.593.879-3.206,1.376-4.792.498-1.585,1.039-3.174,1.608-4.722.566-1.539,1.18-3.088,1.824-4.604.637-1.499,1.321-3.007,2.035-4.482.707-1.461,1.46-2.926,2.241-4.355.777-1.423,1.599-2.844,2.442-4.223Z"/>
    <path class="uuid-e8445d92-fd44-4f48-b375-d508b5e13d72" d="M75.519,221.074c-1.331-1.141-3.164-1.493-4.824-.932-1.516.515-3.059,1.005-4.588,1.457-1.537.455-3.101.884-4.648,1.275-1.555.394-3.136.761-4.703,1.091-1.571.332-3.168.636-4.751.904-1.585.269-3.197.509-4.793.714-1.592.205-3.218.38-4.831.522-1.604.141-3.24.251-4.86.327l-.799.029c-2.737.112-4.866,2.422-4.754,5.159s2.436,4.875,5.159,4.754l.855-.032c1.756-.083,3.528-.202,5.266-.354,1.746-.153,3.505-.344,5.227-.565,1.727-.222,3.473-.482,5.188-.773,1.712-.29,3.442-.619,5.141-.979,1.694-.357,3.406-.754,5.087-1.18.788-.199,1.579-.408,2.37-.624-.103.904-.196,1.811-.28,2.713-.163,1.765-.292,3.552-.382,5.312-.09,1.764-.146,3.551-.163,5.312-.018,1.763,0,3.549.055,5.309.054,1.76.146,3.542.272,5.295.126,1.752.291,3.528.488,5.262l.038.308c.037.316.102.622.194.914.641,2.05,2.554,3.476,4.728,3.476.19,0,.383-.011.577-.033,2.721-.315,4.672-2.777,4.357-5.499l-.033-.268c-.184-1.617-.335-3.256-.452-4.873-.117-1.619-.201-3.264-.252-4.89-.05-1.624-.067-3.272-.05-4.9.016-1.627.067-3.277.15-4.905.083-1.625.202-3.277.353-4.907.151-1.635.338-3.285.555-4.903.219-1.634.474-3.28.758-4.894.304-1.726-.326-3.484-1.657-4.625Z"/>
    <path class="uuid-e8445d92-fd44-4f48-b375-d508b5e13d72" d="M50.517,213.931c2.415-.417,4.118-2.515,4.117-4.885,0-.279-.024-.563-.073-.848-.466-2.699-3.029-4.51-5.732-4.044-3.174.548-6.409.946-9.614,1.182-3.235.239-6.52.318-9.757.238-2.164-.054-4.423-.19-6.714-.403-2.73-.243-5.145,1.751-5.399,4.479-.015.157-.021.313-.021.468,0,2.531,1.93,4.691,4.501,4.931,2.514.234,4.999.383,7.386.442.899.022,1.801.034,2.705.034,2.679,0,5.37-.099,8.03-.295,3.525-.26,7.082-.697,10.573-1.3Z"/>
    <path class="uuid-e8445d92-fd44-4f48-b375-d508b5e13d72" d="M169.841,145.396c-.037.447-.085.894-.145,1.345-.059.447-.129.893-.209,1.334-.082.447-.174.894-.277,1.335-.104.446-.22.89-.346,1.333-.126.442-.264.883-.413,1.323-.179.527-.264,1.063-.264,1.59,0,2.069,1.302,4,3.369,4.7.528.179,1.065.264,1.593.264,2.067,0,3.997-1.303,4.697-3.369.201-.592.386-1.186.557-1.783.171-.597.326-1.195.467-1.8.141-.601.266-1.204.377-1.812.11-.606.206-1.214.285-1.817.081-.609.146-1.219.196-1.83.05-.609.085-1.219.106-1.833.013-.409.02-.818.02-1.228,0-.2-.002-.401-.005-.602-.01-.61-.035-1.219-.075-1.827-.04-.608-.095-1.216-.165-1.822-.07-.605-.154-1.21-.255-1.818-.1-.601-.214-1.199-.343-1.796-.129-.598-.274-1.194-.432-1.783-.159-.593-.333-1.183-.523-1.774-.188-.584-.392-1.166-.61-1.745-.218-.578-.451-1.153-.698-1.721-.248-.571-.51-1.138-.787-1.698-.276-.561-.565-1.112-.866-1.654-.301-.542-.615-1.076-.943-1.605-.326-.524-.664-1.039-1.014-1.545-.35-.507-.712-1.003-1.085-1.49-.374-.487-.758-.964-1.154-1.431s-.803-.924-1.221-1.37c-.417-.444-.843-.879-1.282-1.304-.439-.425-.888-.838-1.343-1.236-.459-.403-.928-.794-1.409-1.176-.478-.379-.964-.746-1.46-1.101-.497-.356-1.002-.7-1.519-1.032-.514-.331-1.037-.65-1.57-.957-.53-.305-1.068-.598-1.619-.88-.546-.28-1.101-.548-1.666-.803-.563-.255-1.134-.496-1.707-.722-.579-.229-1.165-.444-1.755-.644-.593-.202-1.189-.388-1.787-.558-.598-.171-1.198-.327-1.795-.466-.604-.142-1.209-.268-1.812-.377-.608-.111-1.217-.207-1.822-.286-.609-.081-1.219-.146-1.825-.196-.611-.051-1.222-.086-1.837-.106-.609-.019-1.217-.022-1.829-.015-.61.01-1.219.035-1.827.075-.61.04-1.219.095-1.822.165-.605.07-1.21.154-1.818.255-.601.1-1.199.214-1.796.343-.598.129-1.194.274-1.783.432-.593.159-1.183.333-1.774.523-.584.188-1.166.392-1.745.61-.578.218-1.153.451-1.721.698-.571.248-1.138.51-1.696.786-.562.277-1.114.566-1.656.867-.544.302-1.08.617-1.603.942-.525.326-1.041.665-1.547,1.015-.507.35-1.003.712-1.49,1.085-.487.374-.964.758-1.431,1.154s-.924.803-1.37,1.221c-.444.417-.879.843-1.304,1.283-.425.439-.838.888-1.236,1.342-.403.459-.794.928-1.176,1.409-.379.478-.747.965-1.1,1.459-.356.497-.7,1.002-1.032,1.519-.331.514-.65,1.037-.956,1.568-.307.532-.601,1.072-.88,1.617-.281.547-.548,1.103-.806,1.671-.253.562-.494,1.13-.724,1.711-.227.576-.44,1.159-.643,1.753-.863,2.545-1.864,5.068-2.975,7.497-.306.669-.45,1.371-.45,2.062,0,1.881,1.077,3.68,2.899,4.513,2.494,1.139,5.435.042,6.574-2.449,1.25-2.734,2.376-5.572,3.346-8.432.149-.44.309-.875.476-1.299.17-.429.349-.853.536-1.266.188-.416.385-.825.595-1.233.206-.403.423-.8.647-1.19.226-.391.46-.775.702-1.152.243-.377.495-.748.757-1.114.261-.364.531-.722.806-1.069.277-.35.563-.692.861-1.032.294-.335.596-.664.905-.982.312-.322.632-.637.96-.944.326-.306.661-.604,1.003-.894s.692-.573,1.05-.847c.358-.274.724-.541,1.096-.798.374-.258.754-.508,1.144-.75.387-.241.781-.472,1.183-.695s.81-.437,1.229-.643c.414-.205.832-.398,1.254-.582.422-.183.846-.355,1.271-.516.428-.161.858-.312,1.287-.45.431-.139.864-.267,1.304-.385.435-.117.873-.223,1.312-.318.44-.095.883-.179,1.321-.252.442-.073.886-.135,1.334-.187.443-.052.887-.092,1.332-.121.447-.029.894-.047,1.337-.055.448-.008.899-.003,1.343.011.447.015.895.04,1.346.078.447.037.894.085,1.345.145.445.059.89.128,1.338.21.444.081.888.173,1.335.278.444.104.887.218,1.328.344.441.126.881.264,1.321.414.438.148.87.307,1.302.478.427.168.849.347,1.262.533.417.189.827.387,1.228.592.405.208.803.425,1.194.649.391.226.775.46,1.152.702.377.243.748.495,1.112.755.365.261.723.531,1.072.808.35.277.692.563,1.032.861.335.294.664.596.982.905.322.312.637.632.944.96.306.326.604.661.894,1.003s.573.692.847,1.05c.274.358.541.724.798,1.096.259.374.509.755.747,1.138.241.389.474.785.698,1.188.224.402.438.812.643,1.229.205.414.398.832.582,1.254.183.422.355.846.516,1.271.161.428.312.858.45,1.287.139.431.267.864.385,1.304.117.435.223.873.318,1.312.095.44.179.883.252,1.321.073.442.135.886.186,1.33.051.445.092.89.122,1.337.029.446.047.893.055,1.336.002.147.003.294.003.442,0,.301-.005.603-.015.901-.015.449-.041.897-.078,1.346Z"/>
    <path class="uuid-e8445d92-fd44-4f48-b375-d508b5e13d72" d="M29.745,194.538c.729.019,1.46.027,2.192.027,2.167,0,4.343-.08,6.495-.238,2.853-.21,5.731-.564,8.553-1.052,2.803-.483,5.617-1.11,8.364-1.863,2.732-.748,5.462-1.639,8.116-2.647,2.648-1.005,5.277-2.15,7.813-3.402,2.538-1.251,5.046-2.641,7.454-4.129,2.413-1.49,4.782-3.115,7.041-4.829,2.27-1.723,4.48-3.574,6.568-5.501,2.104-1.941,4.136-4.009,6.042-6.147,1.823-2.045,1.642-5.181-.403-7.004-2.046-1.823-5.181-1.642-7.004.403-1.691,1.898-3.496,3.734-5.364,5.458-1.855,1.713-3.818,3.357-5.836,4.888-2.007,1.523-4.112,2.968-6.257,4.292-2.142,1.324-4.372,2.559-6.629,3.672-2.255,1.113-4.593,2.13-6.947,3.025-2.36.896-4.787,1.688-7.215,2.353-2.44.668-4.94,1.226-7.431,1.655-2.506.433-5.061.748-7.594.934-2.555.189-5.15.251-7.708.188-2.592-.065-5.207-.261-7.774-.583-2.602-.326-5.223-.791-7.793-1.38-.263-.061-.525-.125-.788-.19l-.348-.086c-2.657-.65-5.346.978-5.998,3.639-.651,2.661.978,5.346,3.639,5.998l.322.08c.32.079.639.158.956.23,2.892.664,5.844,1.187,8.774,1.554,2.893.363,5.841.584,8.761.658Z"/>
    <path class="uuid-e8445d92-fd44-4f48-b375-d508b5e13d72" d="M16.884,171.895c2.209.507,4.464.906,6.704,1.187,2.216.278,4.468.447,6.693.502.556.014,1.114.021,1.673.021,1.653,0,3.317-.061,4.964-.182,2.182-.161,4.381-.432,6.535-.804,2.142-.37,4.292-.849,6.389-1.423,2.087-.572,4.173-1.252,6.201-2.022,2.021-.768,4.028-1.642,5.968-2.599,1.751-.864,2.768-2.624,2.768-4.453,0-.737-.165-1.485-.513-2.19-1.212-2.457-4.186-3.467-6.643-2.254-1.659.818-3.375,1.565-5.102,2.222-1.732.658-3.515,1.239-5.299,1.728-1.791.491-3.627.9-5.456,1.216-1.838.317-3.714.548-5.576.686-1.88.138-3.784.183-5.66.138-1.897-.047-3.817-.191-5.707-.428-1.91-.24-3.835-.581-5.719-1.013-1.916-.44-3.834-.985-5.7-1.618-1.688-.573-3.394-1.244-5.069-1.993-2.5-1.116-5.435.003-6.554,2.504-.293.657-.433,1.344-.433,2.02,0,1.897,1.093,3.709,2.937,4.534,1.956.874,3.951,1.658,5.931,2.33,2.183.74,4.425,1.377,6.668,1.892Z"/>
    <path class="uuid-e8445d92-fd44-4f48-b375-d508b5e13d72" d="M4.441,143.678c1.244.906,2.55,1.761,3.884,2.542,1.348.788,2.752,1.518,4.176,2.168,1.443.66,2.941,1.254,4.45,1.766,1.508.512,3.059.952,4.607,1.308.374.085.747.127,1.114.127,2.26,0,4.303-1.555,4.831-3.852.085-.373.126-.746.127-1.113,0-2.261-1.555-4.305-3.852-4.832-1.222-.28-2.446-.628-3.638-1.032-1.193-.405-2.376-.875-3.515-1.395-1.122-.513-2.229-1.087-3.289-1.708-1.049-.614-2.077-1.287-3.057-2-.717-.521-1.427-1.08-2.112-1.66-2.091-1.771-5.221-1.512-6.992.578C.386,135.508,0,136.648,0,137.782c0,1.407.597,2.804,1.754,3.785.871.737,1.775,1.449,2.687,2.112Z"/>
  </g>
</svg>