<?xml version="1.0" encoding="UTF-8"?>
<svg id="uuid-68d7cbe3-5f45-430d-bc2f-7c962a273b57" data-name="Ebene 1 Kopie" xmlns="http://www.w3.org/2000/svg" viewBox="0 0 718.667 704.541">
  <defs>
    <style>
      .uuid-4c058737-71fe-4fc1-9c3e-25181d0eb7fb {
        fill: none;
        stroke: red;
        stroke-linecap: round;
        stroke-linejoin: round;
        stroke-width: 28.346px;
      }
    </style>
  </defs>
  <path class="uuid-4c058737-71fe-4fc1-9c3e-25181d0eb7fb" d="M385.166,364.109c.184-.403.358-.81.523-1.221s.319-.826.463-1.245.278-.842.402-1.268.238-.857.342-1.291.197-.871.281-1.312.156-.885.219-1.332.115-.898.157-1.351.073-.91.094-1.369.032-.921.032-1.386c0-.48-.011-.957-.034-1.431s-.056-.945-.1-1.412-.1-.932-.167-1.393-.144-.918-.233-1.372-.188-.904-.298-1.35-.231-.889-.363-1.327-.275-.873-.428-1.303-.317-.856-.492-1.277-.36-.839-.556-1.251-.402-.821-.619-1.224-.444-.802-.682-1.195-.486-.782-.744-1.166-.527-.762-.806-1.135-.568-.741-.867-1.103-.609-.719-.928-1.07-.649-.697-.989-1.036c-.339-.339-.685-.669-1.036-.988s-.708-.628-1.07-.927-.73-.588-1.103-.867-.751-.547-1.135-.805-.772-.506-1.165-.744-.792-.465-1.195-.681-.811-.423-1.223-.619-.829-.381-1.251-.555-.847-.339-1.277-.492-.864-.296-1.302-.428-.881-.253-1.327-.363-.896-.21-1.35-.298-.911-.166-1.372-.233-.925-.122-1.392-.167-.938-.078-1.412-.1-.951-.034-1.431-.034-.957.011-1.431.034-.945.056-1.413.1-.932.1-1.393.167-.918.144-1.372.233-.904.188-1.35.298-.889.231-1.327.363-.873.275-1.303.428-.856.317-1.277.492-.839.36-1.251.556-.821.402-1.224.619-.802.444-1.195.682-.782.486-1.166.744-.762.527-1.135.806-.741.568-1.103.867-.719.609-1.07.928-.697.649-1.036.989c-.339.339-.669.685-.988,1.036s-.628.708-.927,1.07-.588.73-.867,1.103-.547.751-.805,1.135-.506.772-.743,1.165-.465.792-.681,1.195-.423.811-.619,1.223-.381.829-.555,1.251-.339.847-.492,1.277-.296.864-.428,1.302-.253.881-.363,1.327-.21.896-.298,1.35-.166.911-.233,1.372-.122.925-.167,1.392-.078.938-.1,1.412-.034.951-.034,1.431c0,8.792-.447,17.482-1.32,26.047-.873,8.566-2.171,17.007-3.873,25.303-1.702,8.296-3.808,16.447-6.297,24.43s-5.359,15.8-8.591,23.428-6.825,15.067-10.757,22.296c-3.932,7.229-8.204,14.248-12.793,21.035-4.589,6.787-9.496,13.343-14.7,19.645s-10.703,12.352-16.478,18.126c-5.774,5.774-11.824,11.274-18.126,16.478"/>
  <path class="uuid-4c058737-71fe-4fc1-9c3e-25181d0eb7fb" d="M367.606,602.483c-.88-3.203-1.682-6.431-2.406-9.684s-1.369-6.529-1.934-9.826c-.565-3.298-1.051-6.617-1.456-9.956s-.73-6.696-.973-10.071-.404-6.766-.483-10.172c-.079-3.406-.075-6.801.012-10.184s.255-6.751.506-10.105c.25-3.354.582-6.692.994-10.012s.905-6.623,1.477-9.905,1.224-6.545,1.955-9.785,1.54-6.457,2.427-9.65,1.852-6.361,2.894-9.501c1.042-3.141,2.16-6.254,3.355-9.339s2.465-6.139,3.811-9.162,2.767-6.014,4.262-8.972c1.495-2.957,3.064-5.88,4.707-8.767s3.358-5.737,5.146-8.549c1.788-2.812,3.649-5.584,5.581-8.316s3.936-5.422,6.01-8.07c2.074-2.647,4.219-5.251,6.433-7.809,2.214-2.558,4.498-5.07,6.851-7.535.884-.926,1.743-1.87,2.577-2.831s1.642-1.94,2.426-2.935c.783-.995,1.541-2.006,2.272-3.033s1.438-2.069,2.117-3.126,1.333-2.128,1.96-3.214"/>
  <path class="uuid-4c058737-71fe-4fc1-9c3e-25181d0eb7fb" d="M411.364,551.595c-.059-2.555-.056-5.101.009-7.638.065-2.537.192-5.064.379-7.579s.436-5.019.746-7.509.679-4.967,1.108-7.429.918-4.909,1.466-7.339,1.155-4.843,1.82-7.238,1.389-4.771,2.17-7.126c.781-2.356,1.62-4.691,2.516-7.004.896-2.313,1.849-4.604,2.858-6.872,1.009-2.267,2.075-4.511,3.196-6.729s2.298-4.41,3.53-6.575,2.519-4.303,3.86-6.411c1.341-2.109,2.737-4.188,4.186-6.237s2.952-4.067,4.507-6.052c1.556-1.985,3.164-3.938,4.825-5.857s3.374-3.803,5.138-5.651c1.453-1.522,2.865-3.074,4.236-4.653s2.7-3.188,3.987-4.823c1.287-1.635,2.533-3.297,3.736-4.985,1.203-1.688,2.363-3.4,3.48-5.137,1.117-1.737,2.191-3.498,3.222-5.281s2.017-3.59,2.96-5.417,1.841-3.676,2.694-5.544,1.662-3.756,2.425-5.662c.763-1.906,1.481-3.83,2.153-5.771s1.298-3.899,1.877-5.872c.579-1.973,1.112-3.962,1.598-5.964.486-2.002.924-4.019,1.315-6.048.391-2.029.734-4.07,1.029-6.123.295-2.052.541-4.116.739-6.189.198-2.073.347-4.156.446-6.247.099-2.091.149-4.19.149-6.296,0-2.177-.053-4.345-.158-6.504s-.263-4.308-.473-6.447c-.21-2.138-.471-4.266-.783-6.38s-.676-4.217-1.09-6.305-.879-4.162-1.393-6.221-1.079-4.102-1.693-6.128c-.614-2.026-1.277-4.035-1.989-6.026s-1.472-3.963-2.281-5.915c-.809-1.952-1.666-3.885-2.57-5.796s-1.856-3.801-2.855-5.667c-.999-1.867-2.044-3.711-3.136-5.53s-2.23-3.615-3.414-5.384c-1.184-1.769-2.413-3.513-3.688-5.229-1.274-1.716-2.594-3.405-3.958-5.066-1.364-1.66-2.772-3.292-4.225-4.893s-2.948-3.172-4.487-4.712c-1.539-1.539-3.11-3.035-4.712-4.487-1.601-1.452-3.233-2.86-4.893-4.224s-3.349-2.683-5.065-3.958c-1.716-1.274-3.46-2.504-5.229-3.687"/>
  <path class="uuid-4c058737-71fe-4fc1-9c3e-25181d0eb7fb" d="M391.19,225.84c-2.059-.515-4.133-.979-6.221-1.393s-4.19-.778-6.305-1.09-4.242-.574-6.38-.783-4.288-.367-6.447-.473-4.328-.158-6.504-.158-4.345.053-6.504.158-4.308.263-6.447.473-4.266.471-6.38.783-4.217.676-6.305,1.09-4.162.879-6.221,1.393-4.102,1.079-6.128,1.693-4.035,1.277-6.026,1.989-3.963,1.472-5.915,2.281-3.885,1.666-5.796,2.57-3.801,1.856-5.667,2.855c-1.867.999-3.711,2.044-5.53,3.136s-3.615,2.23-5.384,3.414-3.513,2.413-5.229,3.688c-1.716,1.274-3.405,2.594-5.066,3.958-1.66,1.364-3.292,2.772-4.893,4.225-1.601,1.452-3.172,2.948-4.712,4.488-1.539,1.539-3.035,3.11-4.487,4.711-1.452,1.601-2.86,3.233-4.224,4.893-1.364,1.66-2.683,3.349-3.958,5.065-1.274,1.716-2.504,3.46-3.687,5.229s-2.322,3.564-3.413,5.384-2.137,3.663-3.136,5.53-1.95,3.756-2.855,5.667c-.904,1.911-1.761,3.843-2.57,5.795s-1.569,3.924-2.281,5.915-1.375,4-1.989,6.026c-.614,2.026-1.178,4.069-1.693,6.128-.515,2.059-.979,4.133-1.393,6.221-.414,2.088-.778,4.19-1.09,6.305-.312,2.115-.574,4.242-.783,6.38-.21,2.138-.367,4.288-.473,6.447s-.158,4.328-.158,6.504c0,5.275-.268,10.489-.792,15.629s-1.302,10.204-2.324,15.182-2.285,9.868-3.778,14.658c-1.493,4.79-3.216,9.48-5.155,14.057s-4.095,9.04-6.454,13.378"/>
  <path class="uuid-4c058737-71fe-4fc1-9c3e-25181d0eb7fb" d="M520.673,435.421c1.312-2.542,2.562-5.114,3.75-7.713,1.188-2.599,2.313-5.226,3.376-7.878,1.062-2.652,2.061-5.329,2.996-8.03.935-2.701,1.806-5.425,2.613-8.17.806-2.745,1.548-5.512,2.224-8.298s1.286-5.592,1.83-8.415,1.022-5.663,1.432-8.519c.41-2.856.754-5.727,1.029-8.611.275-2.884.482-5.782.621-8.691.138-2.909.208-5.83.208-8.76,0-3.029-.074-6.046-.22-9.05s-.366-5.994-.658-8.969-.655-5.935-1.09-8.877c-.435-2.942-.941-5.867-1.517-8.772-.576-2.905-1.223-5.791-1.939-8.655-.716-2.864-1.501-5.707-2.355-8.525-.854-2.819-1.777-5.614-2.767-8.384-.99-2.77-2.049-5.514-3.174-8.23-1.125-2.716-2.317-5.405-3.575-8.063s-2.582-5.288-3.972-7.885c-1.389-2.597-2.844-5.163-4.363-7.694-1.519-2.531-3.102-5.029-4.749-7.491s-3.357-4.888-5.13-7.275c-1.773-2.388-3.609-4.738-5.506-7.048s-3.857-4.58-5.877-6.808c-2.02-2.228-4.102-4.414-6.243-6.555-2.142-2.142-4.327-4.223-6.555-6.243-2.228-2.02-4.498-3.98-6.808-5.877-2.31-1.898-4.66-3.733-7.048-5.506-2.388-1.773-4.814-3.484-7.275-5.13-2.462-1.647-4.959-3.23-7.491-4.749-2.531-1.519-5.097-2.974-7.694-4.363s-5.226-2.714-7.885-3.972c-2.659-1.258-5.347-2.45-8.064-3.575-2.716-1.125-5.46-2.183-8.23-3.174s-5.565-1.913-8.384-2.767-5.661-1.639-8.526-2.355-5.75-1.362-8.655-1.939-5.83-1.082-8.772-1.517-5.902-.798-8.877-1.09-5.966-.511-8.969-.658-6.021-.22-9.05-.22-6.046.074-9.05.22-5.994.366-8.969.658-5.935.655-8.877,1.09-5.867.94-8.772,1.517-5.791,1.223-8.655,1.939-5.707,1.501-8.525,2.355-5.614,1.777-8.384,2.767"/>
  <path class="uuid-4c058737-71fe-4fc1-9c3e-25181d0eb7fb" d="M258.738,201.297c-2.462,1.647-4.888,3.357-7.275,5.13s-4.738,3.609-7.048,5.506c-2.31,1.898-4.58,3.857-6.808,5.877-2.228,2.02-4.414,4.102-6.555,6.243-2.142,2.142-4.223,4.327-6.243,6.555-2.02,2.228-3.98,4.498-5.877,6.808-1.898,2.31-3.733,4.66-5.507,7.048-1.773,2.388-3.484,4.814-5.13,7.275-1.647,2.462-3.23,4.959-4.749,7.491s-2.974,5.097-4.363,7.694c-1.389,2.597-2.714,5.226-3.972,7.885-1.258,2.659-2.45,5.347-3.575,8.063-1.125,2.716-2.183,5.46-3.174,8.23-.99,2.77-1.913,5.565-2.767,8.384-.854,2.819-1.639,5.661-2.355,8.525-.716,2.864-1.362,5.75-1.939,8.655-.576,2.905-1.082,5.83-1.517,8.772s-.798,5.902-1.09,8.877-.511,5.966-.657,8.969-.22,6.021-.22,9.05c0,3.517-.179,6.993-.528,10.419-.349,3.426-.868,6.803-1.549,10.121-.681,3.318-1.523,6.579-2.519,9.772s-2.144,6.32-3.437,9.371-2.73,6.027-4.303,8.919c-1.573,2.892-3.281,5.699-5.117,8.414-1.836,2.715-3.799,5.337-5.88,7.858-2.081,2.521-4.281,4.941-6.591,7.25s-4.729,4.51-7.25,6.591c-2.521,2.081-5.143,4.044-7.858,5.88-2.715,1.836-5.523,3.544-8.414,5.117"/>
  <path class="uuid-4c058737-71fe-4fc1-9c3e-25181d0eb7fb" d="M172.542,74.791c2.22-1.496,4.458-2.966,6.713-4.408,2.255-1.442,4.528-2.857,6.818-4.245s4.598-2.748,6.923-4.08c2.325-1.333,4.667-2.638,7.025-3.915,2.359-1.277,4.734-2.527,7.126-3.749,2.392-1.222,4.801-2.416,7.226-3.582s4.867-2.304,7.324-3.413,4.932-2.191,7.421-3.244c2.579-1.091,5.169-2.148,7.768-3.172s5.208-2.014,7.826-2.97,5.245-1.879,7.881-2.768,5.282-1.744,7.936-2.565,5.317-1.608,7.988-2.362,5.351-1.473,8.039-2.158c2.688-.685,5.384-1.337,8.087-1.954"/>
  <path class="uuid-4c058737-71fe-4fc1-9c3e-25181d0eb7fb" d="M29.907,293.96c.481-2.734.996-5.461,1.546-8.18.549-2.719,1.133-5.431,1.75-8.134.617-2.704,1.269-5.4,1.954-8.087.685-2.688,1.405-5.367,2.158-8.038.753-2.671,1.541-5.334,2.362-7.988.821-2.654,1.676-5.299,2.565-7.935.889-2.636,1.811-5.263,2.768-7.881.956-2.618,1.946-5.226,2.97-7.825,1.024-2.599,2.081-5.188,3.172-7.767,1.053-2.49,2.135-4.964,3.244-7.422,1.11-2.458,2.248-4.899,3.413-7.325,1.166-2.425,2.36-4.834,3.582-7.226,1.222-2.392,2.472-4.768,3.749-7.127,1.277-2.359,2.582-4.701,3.915-7.025s2.693-4.632,4.08-6.923,2.803-4.563,4.245-6.819c1.442-2.255,2.912-4.493,4.408-6.713,1.496-2.22,3.02-4.422,4.57-6.606s3.128-4.35,4.732-6.497,3.235-4.277,4.892-6.387c1.657-2.111,3.341-4.203,5.051-6.276s3.447-4.128,5.21-6.163c1.763-2.035,3.552-4.052,5.367-6.049s3.657-3.975,5.524-5.933,3.76-3.897,5.679-5.816c1.919-1.919,3.858-3.812,5.816-5.679s3.936-3.709,5.933-5.524,4.013-3.604,6.049-5.367"/>
  <path class="uuid-4c058737-71fe-4fc1-9c3e-25181d0eb7fb" d="M65.587,402.323c-1.661-.34-3.292-.76-4.89-1.257-1.598-.497-3.162-1.07-4.688-1.716s-3.014-1.363-4.46-2.149c-1.446-.785-2.85-1.639-4.207-2.556-1.357-.917-2.668-1.897-3.928-2.937-1.26-1.04-2.469-2.139-3.623-3.293-1.154-1.154-2.253-2.363-3.293-3.623s-2.02-2.571-2.937-3.928-1.77-2.761-2.556-4.207-1.503-2.934-2.149-4.46-1.219-3.09-1.716-4.688-.918-3.229-1.257-4.89-.599-3.351-.773-5.066-.263-3.456-.263-5.217c0-2.821.035-5.636.104-8.447.069-2.81.173-5.615.311-8.414"/>
  <path class="uuid-4c058737-71fe-4fc1-9c3e-25181d0eb7fb" d="M359.334,119.895c-3.88,0-7.746.094-11.595.282s-7.68.469-11.492.842-7.604.839-11.374,1.396-7.517,1.205-11.239,1.943-7.42,1.566-11.089,2.484c-3.67.917-7.312,1.924-10.923,3.018s-7.193,2.276-10.742,3.545-7.064,2.625-10.544,4.066c-3.48,1.442-6.925,2.969-10.331,4.581-3.406,1.612-6.775,3.309-10.102,5.089-3.328,1.78-6.614,3.644-9.858,5.59-3.243,1.946-6.443,3.975-9.597,6.085s-6.262,4.302-9.321,6.573-6.07,4.624-9.029,7.055-5.868,4.942-8.722,7.531-5.655,5.256-8.399,7.999c-2.744,2.744-5.411,5.544-7.999,8.399s-5.099,5.763-7.531,8.722-4.784,5.97-7.055,9.03-4.463,6.167-6.573,9.321-4.139,6.354-6.085,9.598c-1.946,3.243-3.81,6.53-5.59,9.858-1.78,3.328-3.477,6.696-5.089,10.103-1.612,3.407-3.139,6.851-4.581,10.331s-2.797,6.996-4.066,10.544-2.451,7.13-3.545,10.742-2.101,7.254-3.018,10.923c-.917,3.67-1.746,7.367-2.484,11.089s-1.386,7.47-1.943,11.239c-.557,3.77-1.023,7.562-1.396,11.374-.373,3.812-.655,7.643-.842,11.492s-.282,7.715-.282,11.595c0,1.761-.089,3.502-.263,5.217s-.433,3.406-.773,5.066-.76,3.292-1.257,4.89-1.07,3.162-1.716,4.688-1.363,3.014-2.149,4.46-1.639,2.85-2.556,4.207c-.917,1.357-1.898,2.668-2.937,3.928s-2.139,2.469-3.293,3.623c-1.154,1.154-2.363,2.253-3.623,3.293-1.26,1.04-2.571,2.02-3.928,2.937"/>
  <path class="uuid-4c058737-71fe-4fc1-9c3e-25181d0eb7fb" d="M589.254,317.875c-.557-3.77-1.205-7.517-1.943-11.239s-1.566-7.42-2.484-11.089c-.917-3.67-1.924-7.312-3.018-10.923s-2.276-7.193-3.545-10.742-2.625-7.064-4.066-10.544-2.969-6.925-4.581-10.331c-1.612-3.407-3.309-6.775-5.089-10.103-1.78-3.328-3.644-6.614-5.59-9.858s-3.975-6.444-6.085-9.598-4.302-6.262-6.573-9.321-4.624-6.07-7.055-9.03-4.942-5.868-7.531-8.722-5.256-5.655-7.999-8.399c-2.744-2.744-5.544-5.411-8.399-7.999s-5.762-5.099-8.722-7.531-5.97-4.784-9.03-7.055c-3.059-2.272-6.167-4.463-9.321-6.573-3.154-2.11-6.354-4.139-9.597-6.085-3.243-1.946-6.53-3.81-9.858-5.59-3.328-1.78-6.696-3.477-10.102-5.089s-6.851-3.139-10.331-4.581-6.996-2.797-10.544-4.066-7.13-2.451-10.742-3.545-7.254-2.101-10.923-3.018-7.367-1.746-11.089-2.484"/>
  <path class="uuid-4c058737-71fe-4fc1-9c3e-25181d0eb7fb" d="M591.007,591.595c-.739.452-1.487.884-2.244,1.295s-1.522.802-2.294,1.172-1.552.72-2.339,1.05c-.787.329-1.58.638-2.379.927s-1.604.556-2.415.803-1.625.474-2.445.68-1.643.392-2.47.557-1.658.309-2.491.433-1.669.227-2.506.31-1.676.145-2.516.186-1.681.062-2.522.062c-.791,0-1.583-.018-2.374-.055s-1.581-.091-2.37-.165-1.577-.165-2.362-.275-1.569-.238-2.35-.385-1.559-.312-2.334-.495-1.546-.385-2.314-.605-1.531-.459-2.29-.716-1.513-.532-2.261-.826-1.492-.606-2.229-.937-1.468-.68-2.192-1.047-1.441-.754-2.151-1.158-1.412-.828-2.106-1.269-1.38-.901-2.057-1.38-1.345-.976-2.004-1.491-1.308-1.05-1.947-1.602-1.267-1.124-1.885-1.714c-1.274-1.216-2.471-2.482-3.591-3.793-1.12-1.31-2.164-2.665-3.13-4.057-.967-1.393-1.856-2.823-2.669-4.286s-1.548-2.957-2.206-4.478-1.239-3.067-1.742-4.634c-.503-1.567-.93-3.153-1.278-4.753-.349-1.6-.62-3.215-.813-4.837-.193-1.622-.309-3.252-.347-4.884-.038-1.632.002-3.265.12-4.895.118-1.629.314-3.255.588-4.869.274-1.615.626-3.219,1.056-4.808s.939-3.16,1.526-4.71,1.252-3.077,1.996-4.576c.744-1.499,1.566-2.969,2.467-4.405s1.881-2.837,2.939-4.198,2.196-2.681,3.412-3.955c2.591-2.714,5.109-5.481,7.554-8.298,2.444-2.817,4.815-5.685,7.111-8.601,2.296-2.916,4.517-5.879,6.662-8.888s4.215-6.063,6.207-9.16,3.908-6.237,5.746-9.417c1.838-3.18,3.598-6.4,5.279-9.658,1.681-3.258,3.283-6.553,4.805-9.884,1.522-3.33,2.964-6.696,4.325-10.094,1.361-3.398,2.641-6.829,3.84-10.289,1.198-3.46,2.314-6.951,3.348-10.469,1.033-3.518,1.983-7.063,2.85-10.633.866-3.57,1.648-7.165,2.345-10.782.697-3.617,1.309-7.256,1.835-10.915.526-3.659.966-7.337,1.318-11.033.353-3.696.618-7.408.795-11.136"/>
  <path class="uuid-4c058737-71fe-4fc1-9c3e-25181d0eb7fb" d="M688.76,293.96c.481,2.734.928,5.475,1.341,8.223s.791,5.503,1.135,8.265.654,5.53.93,8.305c.276,2.775.517,5.556.724,8.343.207,2.787.379,5.58.517,8.379.138,2.799.242,5.604.311,8.414.069,2.81.104,5.626.104,8.447,0,5.402-.128,10.787-.384,16.15s-.637,10.707-1.145,16.025c-.508,5.318-1.14,10.612-1.897,15.877-.757,5.265-1.638,10.502-2.641,15.707-1.003,5.205-2.129,10.378-3.375,15.515-1.247,5.137-2.614,10.239-4.101,15.301-1.487,5.062-3.094,10.085-4.818,15.065-1.725,4.98-3.567,9.917-5.526,14.807-1.959,4.89-4.035,9.733-6.225,14.526-2.191,4.793-4.496,9.535-6.916,14.224-2.419,4.688-4.952,9.322-7.597,13.899-2.645,4.576-5.402,9.095-8.27,13.552-2.868,4.457-5.846,8.853-8.933,13.183s-6.284,8.595-9.588,12.792"/>
  <path class="uuid-4c058737-71fe-4fc1-9c3e-25181d0eb7fb" d="M450.15,30.319c2.671.753,5.334,1.541,7.988,2.362s5.299,1.676,7.936,2.565,5.264,1.811,7.881,2.768,5.227,1.946,7.826,2.97,5.188,2.081,7.768,3.172c2.49,1.053,4.964,2.135,7.421,3.244s4.899,2.248,7.324,3.413,4.834,2.36,7.226,3.582c2.392,1.222,4.768,2.471,7.126,3.749s4.701,2.582,7.025,3.915,4.632,2.693,6.923,4.08c2.29,1.388,4.563,2.802,6.818,4.245,2.255,1.442,4.493,2.912,6.713,4.408s4.422,3.02,6.606,4.57c2.184,1.55,4.35,3.128,6.497,4.732s4.277,3.235,6.387,4.892c2.111,1.657,4.203,3.341,6.276,5.051,2.073,1.71,4.128,3.447,6.163,5.21,2.035,1.763,4.052,3.552,6.049,5.367s3.975,3.657,5.933,5.524,3.897,3.76,5.816,5.679c1.919,1.919,3.812,3.858,5.679,5.816s3.709,3.936,5.524,5.933,3.604,4.013,5.367,6.049c1.763,2.035,3.5,4.09,5.21,6.163,1.71,2.073,3.394,4.165,5.051,6.276s3.288,4.24,4.892,6.387c1.604,2.148,3.181,4.313,4.732,6.497s3.074,4.386,4.57,6.606,2.966,4.458,4.408,6.713c1.442,2.255,2.857,4.528,4.245,6.819,1.388,2.29,2.748,4.598,4.08,6.923,1.333,2.325,2.638,4.667,3.915,7.025s2.527,4.734,3.749,7.127c1.222,2.392,2.416,4.801,3.582,7.226s2.304,4.867,3.414,7.325c1.11,2.458,2.191,4.932,3.244,7.422,1.091,2.579,2.149,5.169,3.172,7.767s2.014,5.207,2.97,7.825"/>
  <path class="uuid-4c058737-71fe-4fc1-9c3e-25181d0eb7fb" d="M334.094,18.779c2.787-.207,5.58-.379,8.379-.518s5.604-.242,8.414-.311,5.626-.104,8.447-.104,5.636.035,8.447.104,5.615.173,8.414.311,5.592.311,8.379.518,5.568.448,8.343.724,5.543.586,8.305.93,5.517.723,8.265,1.136"/>
  <path class="uuid-4c058737-71fe-4fc1-9c3e-25181d0eb7fb" d="M626.598,447.024c-1.499,4.23-3.095,8.414-4.786,12.549s-3.477,8.221-5.355,12.256c-1.878,4.035-3.849,8.018-5.908,11.946-2.06,3.929-4.209,7.803-6.445,11.621s-4.559,7.578-6.966,11.279c-2.407,3.701-4.898,7.342-7.47,10.921-2.572,3.579-5.226,7.095-7.958,10.546s-5.543,6.837-8.43,10.156-5.849,6.569-8.885,9.749"/>
  <path class="uuid-4c058737-71fe-4fc1-9c3e-25181d0eb7fb" d="M594.387,193.849c5.094,7.54,9.835,15.339,14.199,23.372,4.364,8.033,8.351,16.301,11.937,24.779,3.586,8.478,6.771,17.167,9.532,26.044,2.761,8.876,5.097,17.939,6.985,27.166,1.888,9.226,3.328,18.616,4.295,28.145.968,9.529,1.463,19.198,1.463,28.983,0,4.744-.117,9.46-.347,14.147s-.574,9.343-1.03,13.967-1.022,9.215-1.696,13.771"/>
  <path class="uuid-4c058737-71fe-4fc1-9c3e-25181d0eb7fb" d="M124.281,193.849c5.094-7.54,10.541-14.822,16.318-21.822,5.777-7,11.883-13.718,18.295-20.13s13.13-12.518,20.13-18.295c7-5.777,14.282-11.224,21.822-16.318s15.339-9.835,23.372-14.199,16.301-8.351,24.779-11.937,17.167-6.771,26.044-9.532c8.876-2.761,17.939-5.097,27.166-6.985,9.226-1.888,18.616-3.328,28.145-4.295s19.198-1.463,28.983-1.463,19.453.496,28.983,1.463c9.529.968,18.919,2.407,28.145,4.295s18.29,4.224,27.166,6.985c8.876,2.761,17.565,5.946,26.044,9.532,8.478,3.586,16.746,7.573,24.779,11.937,8.033,4.364,15.831,9.105,23.372,14.199s14.822,10.541,21.822,16.318c7,5.777,13.718,11.883,20.13,18.295"/>
  <path class="uuid-4c058737-71fe-4fc1-9c3e-25181d0eb7fb" d="M75.869,352.336c0-9.785.496-19.453,1.463-28.983s2.407-18.919,4.295-28.145,4.224-18.29,6.985-27.166c2.761-8.876,5.946-17.565,9.532-26.044"/>
  <g>
    <path class="uuid-4c058737-71fe-4fc1-9c3e-25181d0eb7fb" d="M287.547,679.103c-.097-.206-.2-.409-.297-.615-1.763-3.743-3.449-7.522-5.057-11.334-1.608-3.812-3.138-7.658-4.589-11.535-1.451-3.877-2.823-7.786-4.115-11.725-1.292-3.938-2.504-7.906-3.635-11.902-1.131-3.996-2.182-8.019-3.151-12.067-.969-4.049-1.856-8.123-2.661-12.221-.805-4.098-1.527-8.219-2.166-12.362-3.225,2.474-6.5,4.886-9.823,7.233-3.324,2.347-6.696,4.63-10.115,6.846-3.419,2.216-6.885,4.366-10.396,6.448-3.511,2.082-7.066,4.095-10.665,6.039-3.599,1.944-7.241,3.817-10.924,5.619s-7.407,3.532-11.171,5.188c-3.764,1.656-7.567,3.239-11.408,4.746-.624.245-1.254.475-1.88.716"/>
    <path class="uuid-4c058737-71fe-4fc1-9c3e-25181d0eb7fb" d="M525.801,642.538c-1.279-.523-2.553-1.059-3.81-1.634-1.462-.668-2.909-1.372-4.34-2.111-1.43-.738-2.844-1.511-4.241-2.319-1.396-.807-2.775-1.649-4.135-2.524-1.36-.875-2.701-1.784-4.023-2.727-1.321-.942-2.623-1.918-3.904-2.926-1.281-1.008-2.54-2.05-3.778-3.124-1.238-1.074-2.453-2.18-3.645-3.318-1.232-1.176-2.431-2.378-3.596-3.605-1.165-1.226-2.297-2.477-3.394-3.751-1.097-1.274-2.16-2.572-3.188-3.891s-2.022-2.661-2.98-4.024c-.958-1.363-1.881-2.747-2.768-4.15-.887-1.404-1.739-2.827-2.554-4.27-.815-1.442-1.594-2.903-2.336-4.382-.742-1.479-1.448-2.975-2.116-4.488-.668-1.513-1.299-3.042-1.892-4.586-.593-1.545-1.148-3.104-1.665-4.678-.517-1.574-.996-3.162-1.436-4.763-.44-1.601-.841-3.216-1.203-4.842-.362-1.626-.684-3.264-.967-4.913-.283-1.649-.526-3.308-.729-4.978-.203-1.669-.365-3.348-.487-5.035s-.202-3.383-.242-5.086c-.039-1.703-.037-3.401.006-5.092.043-1.691.128-3.376.253-5.053.125-1.677.291-3.346.497-5.006.206-1.66.452-3.312.739-4.953.286-1.641.612-3.272.977-4.893.365-1.62.77-3.229,1.213-4.825.443-1.596.926-3.18,1.447-4.751.521-1.57,1.08-3.127,1.677-4.669.597-1.542,1.233-3.07,1.905-4.581.673-1.511,1.383-3.007,2.131-4.486.748-1.479,1.532-2.94,2.353-4.384s1.679-2.869,2.573-4.274c.894-1.406,1.824-2.792,2.79-4.158.966-1.366,1.968-2.711,3.005-4.035,1.037-1.324,2.109-2.626,3.217-3.905,1.107-1.279,2.249-2.536,3.426-3.768,2.022-2.118,3.987-4.277,5.895-6.476-1.908,2.199-3.873,4.358-5.895,6.476-1.177,1.232-2.319,2.489-3.426,3.768-1.107,1.279-2.18,2.581-3.217,3.905-1.037,1.324-2.039,2.669-3.005,4.035-.966,1.366-1.896,2.752-2.79,4.158-.894,1.406-1.752,2.831-2.573,4.274s-1.606,2.905-2.353,4.384c-.748,1.479-1.458,2.974-2.131,4.486-.673,1.512-1.308,3.039-1.905,4.581-.597,1.542-1.156,3.099-1.677,4.669-.521,1.57-1.003,3.154-1.447,4.751-.443,1.596-.848,3.205-1.213,4.825-.365,1.62-.691,3.251-.977,4.893-.286,1.641-.532,3.293-.739,4.953-.206,1.66-.372,3.329-.497,5.006-.125,1.677-.21,3.362-.253,5.053-.043,1.691-.046,3.389-.006,5.092.04,1.703.12,3.399.242,5.086s.284,3.366.487,5.035c.203,1.669.446,3.329.729,4.978.283,1.649.605,3.287.967,4.913.362,1.626.763,3.24,1.203,4.842.44,1.601.919,3.189,1.436,4.763.517,1.574,1.072,3.134,1.665,4.678.593,1.545,1.224,3.074,1.892,4.586.668,1.513,1.374,3.009,2.116,4.488.742,1.479,1.521,2.94,2.336,4.382.815,1.442,1.667,2.866,2.554,4.27.887,1.404,1.81,2.787,2.768,4.15.958,1.363,1.952,2.705,2.98,4.024s2.091,2.617,3.188,3.891c1.097,1.274,2.229,2.525,3.394,3.751,1.165,1.226,2.364,2.428,3.596,3.605,1.192,1.138,2.407,2.244,3.645,3.318,1.237,1.074,2.497,2.115,3.778,3.124,1.281,1.009,2.582,1.984,3.904,2.926,1.321.942,2.663,1.851,4.023,2.727,1.36.875,2.739,1.717,4.135,2.524,1.396.807,2.81,1.58,4.241,2.319,1.431.738,2.877,1.442,4.34,2.111,1.257.575,2.531,1.111,3.81,1.634"/>
    <path class="uuid-4c058737-71fe-4fc1-9c3e-25181d0eb7fb" d="M469.555,668.205c-1.827-1.445-3.627-2.932-5.395-4.466-1.856-1.611-3.679-3.27-5.467-4.977-1.848-1.765-3.647-3.568-5.395-5.407-1.748-1.84-3.445-3.716-5.091-5.627-1.646-1.911-3.24-3.857-4.783-5.837-1.542-1.979-3.033-3.992-4.47-6.036-1.438-2.044-2.822-4.12-4.153-6.226-1.331-2.106-2.608-4.241-3.831-6.405-1.223-2.164-2.391-4.355-3.504-6.573-1.113-2.218-2.171-4.463-3.173-6.732-1.002-2.269-1.948-4.563-2.838-6.88-.89-2.317-1.723-4.656-2.498-7.018-.776-2.361-1.494-4.743-2.153-7.145.66,2.402,1.378,4.784,2.153,7.145.775,2.361,1.608,4.701,2.498,7.018.89,2.317,1.836,4.611,2.838,6.88,1.002,2.269,2.06,4.514,3.173,6.732,1.113,2.218,2.282,4.41,3.504,6.573,1.223,2.164,2.5,4.299,3.831,6.405,1.331,2.106,2.715,4.181,4.153,6.226,1.437,2.044,2.927,4.057,4.47,6.036,1.542,1.979,3.137,3.926,4.783,5.837,1.646,1.911,3.343,3.788,5.091,5.627,1.748,1.84,3.546,3.643,5.395,5.407,1.788,1.707,3.611,3.366,5.467,4.977,1.768,1.534,3.568,3.021,5.395,4.466"/>
    <path class="uuid-4c058737-71fe-4fc1-9c3e-25181d0eb7fb" d="M411.129,682.824c-.55-.624-1.109-1.241-1.651-1.87-2.195-2.548-4.321-5.143-6.377-7.783-2.057-2.639-4.044-5.323-5.96-8.049-1.917-2.726-3.762-5.494-5.537-8.301-1.775-2.808-3.477-5.655-5.108-8.54,1.63,2.885,3.333,5.732,5.108,8.54,1.775,2.807,3.62,5.575,5.537,8.301,1.917,2.726,3.904,5.409,5.96,8.049,2.057,2.639,4.183,5.234,6.377,7.783.542.629,1.101,1.247,1.651,1.87"/>
    <path class="uuid-4c058737-71fe-4fc1-9c3e-25181d0eb7fb" d="M350.146,686.694c-.58-.893-1.172-1.78-1.74-2.68-2.218-3.51-4.347-7.069-6.385-10.675-2.038-3.606-3.985-7.259-5.841-10.956-1.855-3.697-3.619-7.438-5.289-11.22-1.67-3.782-3.247-7.605-4.73-11.467s-2.871-7.761-4.163-11.697-2.489-7.906-3.589-11.909c-1.1-4.003-2.103-8.039-3.007-12.105s-1.711-8.161-2.417-12.283c-.707-4.122-1.314-8.271-1.821-12.445-.506-4.173-.912-8.37-1.216-12.589-.304-4.218-.505-8.458-.604-12.716-.099-4.258-.094-8.502.015-12.729.108-4.228.319-8.439.632-12.631.313-4.192.727-8.365,1.242-12.515s1.131-8.279,1.846-12.381c.715-4.103,1.53-8.181,2.443-12.231s1.925-8.072,3.033-12.062c1.109-3.991,2.315-7.951,3.617-11.877,1.302-3.926,2.7-7.818,4.194-11.673,1.493-3.855,3.082-7.674,4.764-11.453s3.458-7.518,5.327-11.214c1.869-3.697,3.83-7.35,5.883-10.959,2.053-3.608,4.198-7.171,6.433-10.686,2.235-3.514,4.561-6.98,6.976-10.395,2.415-3.415,4.92-6.778,7.512-10.087-2.593,3.309-5.097,6.673-7.512,10.087-2.415,3.415-4.741,6.881-6.976,10.395-2.235,3.515-4.38,7.077-6.433,10.686-2.053,3.608-4.015,7.262-5.883,10.959-1.869,3.697-3.645,7.436-5.327,11.214s-3.271,7.597-4.764,11.453c-1.493,3.855-2.892,7.747-4.194,11.673-1.302,3.926-2.508,7.886-3.617,11.877-1.109,3.991-2.12,8.013-3.033,12.062s-1.728,8.128-2.443,12.231c-.715,4.103-1.331,8.231-1.846,12.381s-.93,8.323-1.242,12.515c-.313,4.192-.524,8.403-.632,12.631-.108,4.228-.113,8.472-.015,12.729.098,4.258.3,8.498.604,12.716.304,4.219.709,8.416,1.216,12.589.507,4.173,1.114,8.322,1.821,12.445.707,4.122,1.513,8.218,2.417,12.283s1.907,8.102,3.007,12.105c1.1,4.003,2.296,7.974,3.589,11.909s2.681,7.835,4.163,11.697,3.06,7.685,4.73,11.467c1.67,3.782,3.434,7.523,5.289,11.22,1.855,3.697,3.803,7.35,5.841,10.956,2.038,3.606,4.167,7.165,6.385,10.675.569.9,1.16,1.787,1.74,2.68"/>
    <path class="uuid-4c058737-71fe-4fc1-9c3e-25181d0eb7fb" d="M185.493,638.177c.625-.241,1.256-.471,1.88-.716,3.841-1.507,7.644-3.09,11.408-4.746,3.764-1.656,7.488-3.386,11.171-5.188s7.325-3.676,10.924-5.619c3.599-1.944,7.154-3.957,10.665-6.039,3.511-2.082,6.977-4.232,10.396-6.448,3.419-2.216,6.791-4.499,10.115-6.846,3.324-2.347,6.599-4.759,9.823-7.233.639,4.143,1.361,8.264,2.166,12.362.805,4.098,1.692,8.172,2.661,12.221.969,4.049,2.02,8.072,3.151,12.067,1.131,3.995,2.343,7.963,3.635,11.902,1.292,3.938,2.664,7.847,4.115,11.725,1.451,3.877,2.981,7.723,4.589,11.535,1.608,3.812,3.294,7.591,5.057,11.334.097.206.2.409.297.615"/>
    <path class="uuid-4c058737-71fe-4fc1-9c3e-25181d0eb7fb" d="M135.068,600.506c5.599-1.335,11.132-2.841,16.583-4.54,7.984-2.489,15.8-5.359,23.428-8.591,7.628-3.232,15.067-6.825,22.296-10.757-7.229,3.932-14.668,7.525-22.296,10.757-7.628,3.232-15.444,6.103-23.428,8.591-5.45,1.699-10.984,3.205-16.583,4.54"/>
    <path class="uuid-4c058737-71fe-4fc1-9c3e-25181d0eb7fb" d="M93.691,555.643c1.006-.087,2.014-.167,3.016-.269,6.852-.698,13.606-1.737,20.243-3.098s13.157-3.047,19.544-5.037c6.387-1.991,12.64-4.288,18.742-6.873,6.102-2.585,12.054-5.46,17.837-8.605,5.783-3.146,11.398-6.563,16.828-10.234,5.43-3.672,10.674-7.597,15.716-11.76,5.042-4.163,9.881-8.562,14.501-13.182s9.019-9.459,13.182-14.501c4.163-5.042,8.089-10.286,11.76-15.716,3.671-5.43,7.089-11.045,10.234-16.828,3.146-5.783,6.02-11.735,8.605-17.837,2.585-6.102,4.882-12.355,6.873-18.742,1.991-6.387,3.676-12.907,5.037-19.544,1.362-6.637,2.4-13.39,3.098-20.243.698-6.852,1.056-13.804,1.056-20.838,0-1.325.032-2.645.096-3.959.064-1.314.16-2.622.288-3.924.128-1.301.287-2.596.477-3.883.19-1.287.411-2.567.664-3.837s.535-2.533.848-3.786c.313-1.253.657-2.496,1.031-3.73.374-1.233.777-2.456,1.211-3.668.433-1.212.896-2.412,1.389-3.6.492-1.188,1.014-2.365,1.564-3.528s1.13-2.313,1.737-3.449c.608-1.136,1.244-2.259,1.909-3.366.665-1.107,1.357-2.2,2.078-3.277.72-1.077,1.469-2.138,2.244-3.183.776-1.045,1.579-2.073,2.409-3.083s1.687-2.003,2.571-2.978,1.794-1.931,2.731-2.868c.937-.937,1.893-1.848,2.868-2.732.975-.884,1.968-1.741,2.979-2.572,1.011-.83,2.039-1.634,3.084-2.409,1.045-.776,2.106-1.524,3.183-2.245,1.077-.721,2.17-1.414,3.277-2.078,1.108-.665,2.23-1.301,3.366-1.909,1.136-.608,2.287-1.187,3.45-1.738,1.163-.551,2.34-1.072,3.528-1.564,1.188-.492,2.389-.955,3.601-1.389,1.212-.433,2.435-.837,3.668-1.211,1.233-.374,2.477-.717,3.73-1.031,1.253-.313,2.516-.596,3.786-.848,1.271-.252,2.551-.473,3.838-.664,1.287-.19,2.582-.349,3.883-.477,1.302-.127,2.61-.224,3.924-.288,1.314-.064,2.634-.096,3.959-.096s2.645.032,3.959.096c1.314.064,2.622.16,3.924.288,1.302.128,2.596.287,3.883.477,1.287.19,2.567.411,3.837.663,1.271.252,2.533.535,3.786.848,1.253.313,2.496.657,3.73,1.03,1.233.374,2.456.777,3.668,1.211,1.212.433,2.412.896,3.6,1.388s2.365,1.014,3.528,1.564c1.163.55,2.313,1.13,3.449,1.737,1.136.608,2.258,1.244,3.366,1.909,1.107.665,2.2,1.357,3.277,2.078,1.077.72,2.138,1.469,3.183,2.244s2.073,1.579,3.083,2.409c1.01.83,2.004,1.687,2.978,2.571.975.884,1.931,1.794,2.868,2.731.937.937,1.848,1.893,2.732,2.868.884.975,1.741,1.968,2.572,2.979.83,1.011,1.634,2.039,2.409,3.083.776,1.045,1.524,2.106,2.245,3.183.721,1.077,1.414,2.17,2.078,3.277.665,1.108,1.301,2.23,1.909,3.366.608,1.136,1.187,2.286,1.738,3.45.551,1.163,1.072,2.34,1.564,3.528.492,1.188.955,2.389,1.389,3.601s.837,2.435,1.211,3.668c.374,1.233.717,2.477,1.031,3.73.313,1.253.596,2.516.848,3.786.252,1.271.473,2.55.664,3.838.19,1.287.349,2.582.477,3.883.127,1.302.224,2.61.288,3.924.064,1.314.096,2.634.096,3.959,0-1.325-.032-2.645-.096-3.959-.064-1.314-.16-2.622-.288-3.924-.128-1.302-.287-2.596-.477-3.883-.19-1.287-.412-2.567-.664-3.838-.252-1.271-.535-2.533-.848-3.786-.313-1.253-.657-2.497-1.031-3.73-.374-1.233-.777-2.456-1.211-3.668s-.896-2.412-1.389-3.601c-.492-1.188-1.014-2.365-1.564-3.528-.551-1.163-1.13-2.313-1.738-3.45-.608-1.136-1.244-2.259-1.909-3.366-.665-1.108-1.357-2.2-2.078-3.277-.72-1.077-1.469-2.139-2.245-3.183-.776-1.045-1.579-2.073-2.409-3.083-.83-1.011-1.688-2.004-2.572-2.979-.884-.975-1.795-1.931-2.732-2.868-.937-.937-1.893-1.847-2.868-2.731-.975-.884-1.968-1.741-2.978-2.571-1.01-.83-2.039-1.633-3.083-2.409s-2.106-1.524-3.183-2.244c-1.077-.72-2.17-1.413-3.277-2.078-1.108-.664-2.23-1.301-3.366-1.909-1.136-.608-2.286-1.187-3.449-1.737-1.163-.55-2.339-1.072-3.528-1.564s-2.389-.955-3.6-1.388c-1.212-.433-2.434-.837-3.668-1.211-1.233-.374-2.477-.717-3.73-1.03-1.253-.313-2.515-.596-3.786-.848-1.271-.252-2.55-.473-3.837-.663-1.287-.19-2.582-.349-3.883-.477-1.302-.127-2.61-.224-3.924-.288-1.314-.064-2.634-.096-3.959-.096s-2.645.032-3.959.096c-1.314.064-2.622.16-3.924.288-1.302.128-2.596.287-3.883.477-1.287.19-2.567.411-3.838.664-1.271.252-2.533.535-3.786.848-1.253.313-2.497.657-3.73,1.031-1.233.374-2.456.777-3.668,1.211-1.212.433-2.412.896-3.601,1.389-1.188.492-2.365,1.014-3.528,1.564-1.163.551-2.313,1.13-3.45,1.738-1.136.608-2.259,1.245-3.366,1.909-1.108.665-2.2,1.357-3.277,2.078-1.077.721-2.139,1.469-3.183,2.245-1.045.776-2.073,1.579-3.084,2.409-1.011.83-2.004,1.688-2.979,2.572-.975.884-1.931,1.795-2.868,2.732-.937.937-1.847,1.893-2.731,2.868s-1.741,1.968-2.571,2.978-1.633,2.039-2.409,3.083c-.776,1.045-1.524,2.106-2.244,3.183-.72,1.077-1.413,2.17-2.078,3.277-.664,1.107-1.301,2.23-1.909,3.366-.608,1.136-1.187,2.286-1.737,3.449s-1.072,2.339-1.564,3.528c-.492,1.188-.955,2.389-1.389,3.6-.433,1.212-.837,2.434-1.211,3.668-.374,1.233-.717,2.477-1.031,3.73-.313,1.253-.596,2.515-.848,3.786s-.473,2.55-.664,3.837c-.19,1.287-.349,2.582-.477,3.883-.127,1.301-.224,2.61-.288,3.924-.064,1.314-.096,2.634-.096,3.959,0,7.034-.358,13.985-1.056,20.838-.698,6.852-1.737,13.606-3.098,20.243-1.362,6.637-3.047,13.157-5.037,19.544-1.991,6.387-4.288,12.64-6.873,18.742-2.585,6.102-5.46,12.054-8.605,17.837-3.146,5.783-6.563,11.398-10.234,16.828-3.672,5.43-7.597,10.674-11.76,15.716-4.163,5.042-8.562,9.881-13.182,14.501s-9.459,9.019-14.501,13.182c-5.042,4.163-10.286,8.089-15.716,11.76-5.43,3.671-11.045,7.089-16.828,10.234-5.783,3.146-11.735,6.02-17.837,8.605-6.102,2.585-12.355,4.882-18.742,6.873-6.387,1.991-12.907,3.676-19.544,5.037s-13.39,2.4-20.243,3.098c-1.002.102-2.01.181-3.016.269"/>
    <path class="uuid-4c058737-71fe-4fc1-9c3e-25181d0eb7fb" d="M61.5,504.727c4.732.443,9.523.68,14.369.68,5.275,0,10.489-.268,15.629-.792,5.139-.524,10.204-1.302,15.182-2.324,4.978-1.021,9.868-2.285,14.658-3.778,4.79-1.493,9.48-3.216,14.057-5.155,4.577-1.939,9.04-4.095,13.378-6.454,4.338-2.359,8.549-4.922,12.621-7.676,4.072-2.754,8.006-5.698,11.787-8.82,3.781-3.122,7.411-6.422,10.876-9.886-3.465,3.465-7.094,6.764-10.876,9.886-3.781,3.122-7.715,6.066-11.787,8.82-4.072,2.754-8.284,5.316-12.621,7.676-4.338,2.359-8.801,4.515-13.378,6.454-4.577,1.939-9.267,3.662-14.057,5.155-4.79,1.493-9.681,2.757-14.658,3.778-4.978,1.021-10.043,1.8-15.182,2.324-5.139.523-10.353.792-15.629.792-4.846,0-9.637-.237-14.369-.68"/>
    <path class="uuid-4c058737-71fe-4fc1-9c3e-25181d0eb7fb" d="M38.547,447.316c2.298.906,4.635,1.731,7.01,2.472,3.193.995,6.454,1.838,9.772,2.519,3.318.681,6.695,1.2,10.121,1.549,3.426.349,6.902.528,10.419.528s6.993-.179,10.419-.528c-3.426.349-6.902.528-10.419.528s-6.993-.179-10.419-.528c-3.426-.349-6.803-.868-10.121-1.549-3.318-.681-6.579-1.523-9.772-2.519-2.375-.74-4.712-1.566-7.01-2.472"/>
  </g>
</svg>